<svg width="198" height="146" viewBox="0 0 198 146" fill="none" xmlns="http://www.w3.org/2000/svg">
<path d="M1 78.2238C46.2272 80.1943 36.6563 14.7932 82.2588 1.09363M1 78.2238C43.9752 80.0962 40.7849 12.4474 83.9478 5.69148M1 78.2238C45.5703 78.2238 43.7875 10.4769 85.0738 10.4769M1 78.2238C46.4148 76.441 43.1307 16.2945 85.0738 14.9809M1 78.2238C46.7902 74.5644 46.6025 17.139 85.0738 19.391M1 78.2238C47.6347 74.4969 45.758 22.1121 85.0738 24.0826M1 78.2238C48.1038 72.1248 46.7902 26.6161 85.0738 28.1174M1 78.2238C51.8571 69.5913 47.447 30.1817 85.0738 32.5275M1 78.2238C50.6373 67.527 46.2612 38.439 85.0738 37.2191M1 78.2238C51.4818 65.1812 49.2401 41.8169 85.0738 41.8169M1 78.2238C50.825 65.3509 50.7419 45.2887 85.0738 46.6962M1 78.2238C51.4818 63.4922 54.8222 51.9133 85.0738 51.0125M1 78.2238C18.359 81.6018 59.8996 51.0125 85.0738 54.7658M1 78.2238C26.7101 72.0788 73.5324 55.0397 83.7601 59.4574M1 78.2238C26.4286 72.7439 77.1543 60.7523 83.7601 64.0552M1 78.2238C24.677 74.0639 74.1141 66.3071 82.4464 68.5591" stroke="#8FFFFF" stroke-width="0.187665"/>
<path d="M1 78.4115C25.4902 78.4116 74.9399 70.5109 81.6958 72.6878M1 78.4115C2.27612 78.8619 55.3289 77.786 81.6958 77.1918M1 78.4115C9.63257 76.3097 57.7685 79.9129 80.7575 81.9772" stroke="#8FFFFF" stroke-width="0.187665"/>
<path d="M1.00933 78.7224C46.1313 75.1921 38.8547 132.622 84.8996 142.745M1.00933 78.7224C43.8846 75.3679 43.0621 134.503 86.4265 138.667M1.00933 78.7224C45.5439 76.9373 46.1312 136.101 87.3843 134.448M1.00933 78.7224C46.4501 78.4585 45.2715 131.053 87.2268 130.519M1.00933 78.7224C46.8907 80.0804 48.711 130.178 87.0726 126.672M1.00933 78.7224C47.7369 80.1054 47.6933 125.874 86.9086 122.58M1.00933 78.7224C48.2886 82.1557 48.5671 121.904 86.7675 119.061M1.00933 78.7224C52.1275 84.2153 49.0988 118.767 86.6133 115.214M1.00933 78.7224C50.9808 86.0647 47.6252 111.612 86.4493 111.122M1.00933 78.7224C51.9066 88.077 50.4836 108.546 86.2885 107.111M1.00933 78.7224C51.2444 87.9553 51.8628 105.458 86.1179 102.855M1.00933 78.7224C51.9657 89.5503 55.7083 99.5163 85.967 99.0904M1.00933 78.7224C18.2363 75.0806 60.8131 100.099 85.8358 95.8165M1.00933 78.7224C26.9136 83.0527 74.2941 96.0398 84.3592 91.7769M1.00933 78.7224C26.6091 82.4838 77.7134 90.912 84.1984 87.7664M1.00933 78.7224C24.8128 81.4026 74.4815 86.1884 82.7283 83.8904" stroke="#8FFFFF" stroke-width="0.187665"/>
<path d="M198.412 78.13C150.064 80.1006 160.296 14.6995 111.547 0.999878M198.412 78.13C152.472 80.0025 155.882 12.3537 109.741 5.59773M198.412 78.13C150.766 78.13 152.672 10.3832 108.537 10.3832M198.412 78.13C149.864 76.3473 153.374 16.2008 108.537 14.8871M198.412 78.13C149.462 74.4706 149.663 17.0453 108.537 19.2972M198.412 78.13C148.56 74.4032 150.566 22.0184 108.537 23.9889M198.412 78.13C148.058 72.031 149.462 26.5223 108.537 28.0237M198.412 78.13C144.046 69.4975 148.76 30.088 108.537 32.4338M198.412 78.13C145.35 67.4332 150.028 38.3452 108.537 37.1254M198.412 78.13C144.447 65.0874 146.843 41.7232 108.537 41.7232M198.412 78.13C145.149 65.2571 145.238 45.195 108.537 46.6024M198.412 78.13C144.447 63.3984 140.876 51.8195 108.537 50.9187M198.412 78.13C179.855 81.5081 135.448 50.9187 108.537 54.672M198.412 78.13C170.928 71.9851 120.875 54.946 109.942 59.3636M198.412 78.13C171.229 72.6502 117.003 60.6585 109.942 63.9614M198.412 78.13C173.101 73.9701 120.253 66.2134 111.346 68.4654" stroke="#8FFFFF" stroke-width="0.187665"/>
<path d="M198.412 78.3177C172.232 78.3177 119.37 70.417 112.148 72.5939M198.412 78.3177C197.048 78.7681 140.335 77.6921 112.148 77.0979M198.412 78.3177C189.184 76.2158 137.727 79.819 113.151 81.8833" stroke="#8FFFFF" stroke-width="0.187665"/>
<path d="M198.402 78.6287C150.167 75.0984 157.946 132.528 108.724 142.651M198.402 78.6287C152.569 75.2742 153.448 134.409 107.091 138.573M198.402 78.6287C150.795 76.8436 150.167 136.008 106.068 134.354M198.402 78.6287C149.826 78.3647 151.086 130.96 106.236 130.425M198.402 78.6287C149.355 79.9866 147.409 130.084 106.401 126.579M198.402 78.6287C148.451 80.0117 148.497 125.78 106.576 122.486M198.402 78.6287C147.861 82.062 147.563 121.81 106.727 118.967M198.402 78.6287C143.757 84.1215 146.995 118.673 106.892 115.12M198.402 78.6287C144.983 85.971 148.57 111.518 107.067 111.028M198.402 78.6287C143.993 87.9833 145.514 108.453 107.239 107.018M198.402 78.6287C144.701 87.8616 144.04 105.364 107.421 102.762M198.402 78.6287C143.93 89.4565 139.929 99.4225 107.583 98.9966M198.402 78.6287C179.987 74.9869 134.472 100.005 107.723 95.7228M198.402 78.6287C170.711 82.9589 120.061 95.9461 109.301 91.6831M198.402 78.6287C171.036 82.39 116.406 90.8182 109.473 87.6727M198.402 78.6287C172.956 81.3088 119.861 86.0947 111.045 83.7967" stroke="#8FFFFF" stroke-width="0.187665"/>
<g filter="url(#filter0_df)">
<path d="M87.7014 94.7383C87.7014 96.0338 86.6511 97.0841 85.3556 97.0841C84.06 97.0841 83.0098 96.0338 83.0098 94.7383C83.0098 93.4427 84.06 92.3925 85.3556 92.3925C86.6511 92.3925 87.7014 93.4427 87.7014 94.7383Z" fill="#70C3FF"/>
</g>
<g filter="url(#filter1_df)">
<path d="M105.717 63.5859C105.717 64.8815 104.667 65.9317 103.371 65.9317C102.076 65.9317 101.025 64.8815 101.025 63.5859C101.025 62.2904 102.076 61.2401 103.371 61.2401C104.667 61.2401 105.717 62.2904 105.717 63.5859Z" fill="#70C3FF"/>
</g>
<g filter="url(#filter2_df)">
<path d="M89.7658 53.6398C89.7658 54.9353 88.7156 55.9856 87.42 55.9856C86.1245 55.9856 85.0742 54.9353 85.0742 53.6398C85.0742 52.3442 86.1245 51.2939 87.42 51.2939C88.7156 51.2939 89.7658 52.3442 89.7658 53.6398Z" fill="#70C3FF"/>
</g>
<g filter="url(#filter3_df)">
<path d="M101.026 15.7315C101.026 17.0271 99.9753 18.0774 98.6798 18.0774C97.3842 18.0774 96.334 17.0271 96.334 15.7315C96.334 14.436 97.3842 13.3857 98.6798 13.3857C99.9753 13.3857 101.026 14.436 101.026 15.7315Z" fill="#70C3FF"/>
</g>
<g filter="url(#filter4_df)">
<path d="M101.026 30.7447C101.026 32.0403 99.9753 33.0905 98.6798 33.0905C97.3842 33.0905 96.334 32.0403 96.334 30.7447C96.334 29.4492 97.3842 28.3989 98.6798 28.3989C99.9753 28.3989 101.026 29.4492 101.026 30.7447Z" fill="#70C3FF"/>
</g>
<g filter="url(#filter5_df)">
<path d="M105.717 126.266C105.717 127.562 104.667 128.612 103.371 128.612C102.076 128.612 101.025 127.562 101.025 126.266C101.025 124.971 102.076 123.92 103.371 123.92C104.667 123.92 105.717 124.971 105.717 126.266Z" fill="#70C3FF"/>
</g>
<g filter="url(#filter6_df)">
<path d="M95.7709 115.288C95.7709 116.324 94.9307 117.164 93.8942 117.164C92.8578 117.164 92.0176 116.324 92.0176 115.288C92.0176 114.251 92.8578 113.411 93.8942 113.411C94.9307 113.411 95.7709 114.251 95.7709 115.288Z" fill="#70C3FF"/>
</g>
<g filter="url(#filter7_df)">
<path d="M105.154 90.5159C105.154 91.5524 104.313 92.3926 103.277 92.3926C102.241 92.3926 101.4 91.5524 101.4 90.5159C101.4 89.4795 102.241 88.6393 103.277 88.6393C104.313 88.6393 105.154 89.4795 105.154 90.5159Z" fill="#70C3FF"/>
</g>
<g filter="url(#filter8_df)">
<path d="M93.8939 70.4359C93.8939 71.4723 93.0537 72.3125 92.0173 72.3125C90.9808 72.3125 90.1406 71.4723 90.1406 70.4359C90.1406 69.3994 90.9808 68.5592 92.0173 68.5592C93.0537 68.5592 93.8939 69.3994 93.8939 70.4359Z" fill="#70C3FF"/>
</g>
<g filter="url(#filter9_df)">
<path d="M102.339 47.1652C102.339 48.2017 101.499 49.0419 100.463 49.0419C99.4261 49.0419 98.5859 48.2017 98.5859 47.1652C98.5859 46.1288 99.4261 45.2886 100.463 45.2886C101.499 45.2886 102.339 46.1288 102.339 47.1652Z" fill="#70C3FF"/>
</g>
<g filter="url(#filter10_df)">
<path d="M90.141 31.2139C90.141 32.2504 89.3008 33.0906 88.2643 33.0906C87.2279 33.0906 86.3877 32.2504 86.3877 31.2139C86.3877 30.1775 87.2279 29.3373 88.2643 29.3373C89.3008 29.3373 90.141 30.1775 90.141 31.2139Z" fill="#70C3FF"/>
</g>
<g filter="url(#filter11_df)">
<path d="M93.5189 17.7021C93.5189 18.7385 92.6787 19.5787 91.6423 19.5787C90.6058 19.5787 89.7656 18.7385 89.7656 17.7021C89.7656 16.6656 90.6058 15.8254 91.6423 15.8254C92.6787 15.8254 93.5189 16.6656 93.5189 17.7021Z" fill="#0075FF"/>
<path d="M93.5189 17.7021C93.5189 18.7385 92.6787 19.5787 91.6423 19.5787C90.6058 19.5787 89.7656 18.7385 89.7656 17.7021C89.7656 16.6656 90.6058 15.8254 91.6423 15.8254C92.6787 15.8254 93.5189 16.6656 93.5189 17.7021Z" fill="#0075FF"/>
<path d="M93.5189 17.7021C93.5189 18.7385 92.6787 19.5787 91.6423 19.5787C90.6058 19.5787 89.7656 18.7385 89.7656 17.7021C89.7656 16.6656 90.6058 15.8254 91.6423 15.8254C92.6787 15.8254 93.5189 16.6656 93.5189 17.7021Z" fill="#0075FF"/>
</g>
<g filter="url(#filter12_df)">
<path d="M98.2103 37.7822C98.2103 38.8186 97.3701 39.6588 96.3337 39.6588C95.2972 39.6588 94.457 38.8186 94.457 37.7822C94.457 36.7457 95.2972 35.9055 96.3337 35.9055C97.3701 35.9055 98.2103 36.7457 98.2103 37.7822Z" fill="#0075FF"/>
<path d="M98.2103 37.7822C98.2103 38.8186 97.3701 39.6588 96.3337 39.6588C95.2972 39.6588 94.457 38.8186 94.457 37.7822C94.457 36.7457 95.2972 35.9055 96.3337 35.9055C97.3701 35.9055 98.2103 36.7457 98.2103 37.7822Z" fill="#0075FF"/>
<path d="M98.2103 37.7822C98.2103 38.8186 97.3701 39.6588 96.3337 39.6588C95.2972 39.6588 94.457 38.8186 94.457 37.7822C94.457 36.7457 95.2972 35.9055 96.3337 35.9055C97.3701 35.9055 98.2103 36.7457 98.2103 37.7822Z" fill="#0075FF"/>
</g>
<g filter="url(#filter13_df)">
<path d="M94.4574 59.1758C94.4574 60.2123 93.6172 61.0525 92.5807 61.0525C91.5443 61.0525 90.7041 60.2123 90.7041 59.1758C90.7041 58.1394 91.5443 57.2992 92.5807 57.2992C93.6172 57.2992 94.4574 58.1394 94.4574 59.1758Z" fill="#0075FF"/>
<path d="M94.4574 59.1758C94.4574 60.2123 93.6172 61.0525 92.5807 61.0525C91.5443 61.0525 90.7041 60.2123 90.7041 59.1758C90.7041 58.1394 91.5443 57.2992 92.5807 57.2992C93.6172 57.2992 94.4574 58.1394 94.4574 59.1758Z" fill="#0075FF"/>
<path d="M94.4574 59.1758C94.4574 60.2123 93.6172 61.0525 92.5807 61.0525C91.5443 61.0525 90.7041 60.2123 90.7041 59.1758C90.7041 58.1394 91.5443 57.2992 92.5807 57.2992C93.6172 57.2992 94.4574 58.1394 94.4574 59.1758Z" fill="#0075FF"/>
</g>
<g filter="url(#filter14_df)">
<path d="M105.717 97.0843C105.717 98.1207 104.877 98.9609 103.841 98.9609C102.804 98.9609 101.964 98.1207 101.964 97.0843C101.964 96.0478 102.804 95.2076 103.841 95.2076C104.877 95.2076 105.717 96.0478 105.717 97.0843Z" fill="#0075FF"/>
<path d="M105.717 97.0843C105.717 98.1207 104.877 98.9609 103.841 98.9609C102.804 98.9609 101.964 98.1207 101.964 97.0843C101.964 96.0478 102.804 95.2076 103.841 95.2076C104.877 95.2076 105.717 96.0478 105.717 97.0843Z" fill="#0075FF"/>
<path d="M105.717 97.0843C105.717 98.1207 104.877 98.9609 103.841 98.9609C102.804 98.9609 101.964 98.1207 101.964 97.0843C101.964 96.0478 102.804 95.2076 103.841 95.2076C104.877 95.2076 105.717 96.0478 105.717 97.0843Z" fill="#0075FF"/>
</g>
<g filter="url(#filter15_df)">
<path d="M92.017 124.483C92.017 125.52 91.1768 126.36 90.1403 126.36C89.1039 126.36 88.2637 125.52 88.2637 124.483C88.2637 123.447 89.1039 122.607 90.1403 122.607C91.1768 122.607 92.017 123.447 92.017 124.483Z" fill="#0075FF"/>
<path d="M92.017 124.483C92.017 125.52 91.1768 126.36 90.1403 126.36C89.1039 126.36 88.2637 125.52 88.2637 124.483C88.2637 123.447 89.1039 122.607 90.1403 122.607C91.1768 122.607 92.017 123.447 92.017 124.483Z" fill="#0075FF"/>
<path d="M92.017 124.483C92.017 125.52 91.1768 126.36 90.1403 126.36C89.1039 126.36 88.2637 125.52 88.2637 124.483C88.2637 123.447 89.1039 122.607 90.1403 122.607C91.1768 122.607 92.017 123.447 92.017 124.483Z" fill="#0075FF"/>
</g>
<g filter="url(#filter16_df)">
<path d="M91.0795 86.7626C91.0795 87.7991 90.2393 88.6393 89.2028 88.6393C88.1664 88.6393 87.3262 87.7991 87.3262 86.7626C87.3262 85.7262 88.1664 84.886 89.2028 84.886C90.2393 84.886 91.0795 85.7262 91.0795 86.7626Z" fill="#0075FF"/>
<path d="M91.0795 86.7626C91.0795 87.7991 90.2393 88.6393 89.2028 88.6393C88.1664 88.6393 87.3262 87.7991 87.3262 86.7626C87.3262 85.7262 88.1664 84.886 89.2028 84.886C90.2393 84.886 91.0795 85.7262 91.0795 86.7626Z" fill="#0075FF"/>
<path d="M91.0795 86.7626C91.0795 87.7991 90.2393 88.6393 89.2028 88.6393C88.1664 88.6393 87.3262 87.7991 87.3262 86.7626C87.3262 85.7262 88.1664 84.886 89.2028 84.886C90.2393 84.886 91.0795 85.7262 91.0795 86.7626Z" fill="#0075FF"/>
</g>
<g filter="url(#filter17_f)">
<circle cx="95.5" cy="77.4999" r="33.5" fill="#0094FF" fill-opacity="0.38"/>
</g>
<defs>
<filter id="filter0_df" x="77.3798" y="86.7625" width="15.9515" height="15.9515" filterUnits="userSpaceOnUse" color-interpolation-filters="sRGB">
<feFlood flood-opacity="0" result="BackgroundImageFix"/>
<feColorMatrix in="SourceAlpha" type="matrix" values="0 0 0 0 0 0 0 0 0 0 0 0 0 0 0 0 0 0 127 0" result="hardAlpha"/>
<feOffset/>
<feGaussianBlur stdDeviation="2.81497"/>
<feComposite in2="hardAlpha" operator="out"/>
<feColorMatrix type="matrix" values="0 0 0 0 0.533333 0 0 0 0 0.804 0 0 0 0 1 0 0 0 1 0"/>
<feBlend mode="normal" in2="BackgroundImageFix" result="effect1_dropShadow"/>
<feBlend mode="normal" in="SourceGraphic" in2="effect1_dropShadow" result="shape"/>
<feGaussianBlur stdDeviation="0.187665" result="effect2_foregroundBlur"/>
</filter>
<filter id="filter1_df" x="95.3955" y="55.6102" width="15.9515" height="15.9515" filterUnits="userSpaceOnUse" color-interpolation-filters="sRGB">
<feFlood flood-opacity="0" result="BackgroundImageFix"/>
<feColorMatrix in="SourceAlpha" type="matrix" values="0 0 0 0 0 0 0 0 0 0 0 0 0 0 0 0 0 0 127 0" result="hardAlpha"/>
<feOffset/>
<feGaussianBlur stdDeviation="2.81497"/>
<feComposite in2="hardAlpha" operator="out"/>
<feColorMatrix type="matrix" values="0 0 0 0 0.533333 0 0 0 0 0.804 0 0 0 0 1 0 0 0 1 0"/>
<feBlend mode="normal" in2="BackgroundImageFix" result="effect1_dropShadow"/>
<feBlend mode="normal" in="SourceGraphic" in2="effect1_dropShadow" result="shape"/>
<feGaussianBlur stdDeviation="0.187665" result="effect2_foregroundBlur"/>
</filter>
<filter id="filter2_df" x="79.4443" y="45.664" width="15.9515" height="15.9515" filterUnits="userSpaceOnUse" color-interpolation-filters="sRGB">
<feFlood flood-opacity="0" result="BackgroundImageFix"/>
<feColorMatrix in="SourceAlpha" type="matrix" values="0 0 0 0 0 0 0 0 0 0 0 0 0 0 0 0 0 0 127 0" result="hardAlpha"/>
<feOffset/>
<feGaussianBlur stdDeviation="2.81497"/>
<feComposite in2="hardAlpha" operator="out"/>
<feColorMatrix type="matrix" values="0 0 0 0 0.533333 0 0 0 0 0.804 0 0 0 0 1 0 0 0 1 0"/>
<feBlend mode="normal" in2="BackgroundImageFix" result="effect1_dropShadow"/>
<feBlend mode="normal" in="SourceGraphic" in2="effect1_dropShadow" result="shape"/>
<feGaussianBlur stdDeviation="0.187665" result="effect2_foregroundBlur"/>
</filter>
<filter id="filter3_df" x="90.704" y="7.7558" width="15.9515" height="15.9515" filterUnits="userSpaceOnUse" color-interpolation-filters="sRGB">
<feFlood flood-opacity="0" result="BackgroundImageFix"/>
<feColorMatrix in="SourceAlpha" type="matrix" values="0 0 0 0 0 0 0 0 0 0 0 0 0 0 0 0 0 0 127 0" result="hardAlpha"/>
<feOffset/>
<feGaussianBlur stdDeviation="2.81497"/>
<feComposite in2="hardAlpha" operator="out"/>
<feColorMatrix type="matrix" values="0 0 0 0 0.533333 0 0 0 0 0.804 0 0 0 0 1 0 0 0 1 0"/>
<feBlend mode="normal" in2="BackgroundImageFix" result="effect1_dropShadow"/>
<feBlend mode="normal" in="SourceGraphic" in2="effect1_dropShadow" result="shape"/>
<feGaussianBlur stdDeviation="0.187665" result="effect2_foregroundBlur"/>
</filter>
<filter id="filter4_df" x="90.704" y="22.769" width="15.9515" height="15.9515" filterUnits="userSpaceOnUse" color-interpolation-filters="sRGB">
<feFlood flood-opacity="0" result="BackgroundImageFix"/>
<feColorMatrix in="SourceAlpha" type="matrix" values="0 0 0 0 0 0 0 0 0 0 0 0 0 0 0 0 0 0 127 0" result="hardAlpha"/>
<feOffset/>
<feGaussianBlur stdDeviation="2.81497"/>
<feComposite in2="hardAlpha" operator="out"/>
<feColorMatrix type="matrix" values="0 0 0 0 0.533333 0 0 0 0 0.804 0 0 0 0 1 0 0 0 1 0"/>
<feBlend mode="normal" in2="BackgroundImageFix" result="effect1_dropShadow"/>
<feBlend mode="normal" in="SourceGraphic" in2="effect1_dropShadow" result="shape"/>
<feGaussianBlur stdDeviation="0.187665" result="effect2_foregroundBlur"/>
</filter>
<filter id="filter5_df" x="95.3955" y="118.29" width="15.9515" height="15.9515" filterUnits="userSpaceOnUse" color-interpolation-filters="sRGB">
<feFlood flood-opacity="0" result="BackgroundImageFix"/>
<feColorMatrix in="SourceAlpha" type="matrix" values="0 0 0 0 0 0 0 0 0 0 0 0 0 0 0 0 0 0 127 0" result="hardAlpha"/>
<feOffset/>
<feGaussianBlur stdDeviation="2.81497"/>
<feComposite in2="hardAlpha" operator="out"/>
<feColorMatrix type="matrix" values="0 0 0 0 0.533333 0 0 0 0 0.804 0 0 0 0 1 0 0 0 1 0"/>
<feBlend mode="normal" in2="BackgroundImageFix" result="effect1_dropShadow"/>
<feBlend mode="normal" in="SourceGraphic" in2="effect1_dropShadow" result="shape"/>
<feGaussianBlur stdDeviation="0.187665" result="effect2_foregroundBlur"/>
</filter>
<filter id="filter6_df" x="86.3876" y="107.781" width="15.0132" height="15.0132" filterUnits="userSpaceOnUse" color-interpolation-filters="sRGB">
<feFlood flood-opacity="0" result="BackgroundImageFix"/>
<feColorMatrix in="SourceAlpha" type="matrix" values="0 0 0 0 0 0 0 0 0 0 0 0 0 0 0 0 0 0 127 0" result="hardAlpha"/>
<feOffset/>
<feGaussianBlur stdDeviation="2.81497"/>
<feComposite in2="hardAlpha" operator="out"/>
<feColorMatrix type="matrix" values="0 0 0 0 0.533333 0 0 0 0 0.804 0 0 0 0 1 0 0 0 1 0"/>
<feBlend mode="normal" in2="BackgroundImageFix" result="effect1_dropShadow"/>
<feBlend mode="normal" in="SourceGraphic" in2="effect1_dropShadow" result="shape"/>
<feGaussianBlur stdDeviation="0.187665" result="effect2_foregroundBlur"/>
</filter>
<filter id="filter7_df" x="95.7705" y="83.0093" width="15.0132" height="15.0132" filterUnits="userSpaceOnUse" color-interpolation-filters="sRGB">
<feFlood flood-opacity="0" result="BackgroundImageFix"/>
<feColorMatrix in="SourceAlpha" type="matrix" values="0 0 0 0 0 0 0 0 0 0 0 0 0 0 0 0 0 0 127 0" result="hardAlpha"/>
<feOffset/>
<feGaussianBlur stdDeviation="2.81497"/>
<feComposite in2="hardAlpha" operator="out"/>
<feColorMatrix type="matrix" values="0 0 0 0 0.533333 0 0 0 0 0.804 0 0 0 0 1 0 0 0 1 0"/>
<feBlend mode="normal" in2="BackgroundImageFix" result="effect1_dropShadow"/>
<feBlend mode="normal" in="SourceGraphic" in2="effect1_dropShadow" result="shape"/>
<feGaussianBlur stdDeviation="0.187665" result="effect2_foregroundBlur"/>
</filter>
<filter id="filter8_df" x="84.5107" y="62.9293" width="15.0132" height="15.0132" filterUnits="userSpaceOnUse" color-interpolation-filters="sRGB">
<feFlood flood-opacity="0" result="BackgroundImageFix"/>
<feColorMatrix in="SourceAlpha" type="matrix" values="0 0 0 0 0 0 0 0 0 0 0 0 0 0 0 0 0 0 127 0" result="hardAlpha"/>
<feOffset/>
<feGaussianBlur stdDeviation="2.81497"/>
<feComposite in2="hardAlpha" operator="out"/>
<feColorMatrix type="matrix" values="0 0 0 0 0.533333 0 0 0 0 0.804 0 0 0 0 1 0 0 0 1 0"/>
<feBlend mode="normal" in2="BackgroundImageFix" result="effect1_dropShadow"/>
<feBlend mode="normal" in="SourceGraphic" in2="effect1_dropShadow" result="shape"/>
<feGaussianBlur stdDeviation="0.187665" result="effect2_foregroundBlur"/>
</filter>
<filter id="filter9_df" x="92.956" y="39.6586" width="15.0132" height="15.0132" filterUnits="userSpaceOnUse" color-interpolation-filters="sRGB">
<feFlood flood-opacity="0" result="BackgroundImageFix"/>
<feColorMatrix in="SourceAlpha" type="matrix" values="0 0 0 0 0 0 0 0 0 0 0 0 0 0 0 0 0 0 127 0" result="hardAlpha"/>
<feOffset/>
<feGaussianBlur stdDeviation="2.81497"/>
<feComposite in2="hardAlpha" operator="out"/>
<feColorMatrix type="matrix" values="0 0 0 0 0.533333 0 0 0 0 0.804 0 0 0 0 1 0 0 0 1 0"/>
<feBlend mode="normal" in2="BackgroundImageFix" result="effect1_dropShadow"/>
<feBlend mode="normal" in="SourceGraphic" in2="effect1_dropShadow" result="shape"/>
<feGaussianBlur stdDeviation="0.187665" result="effect2_foregroundBlur"/>
</filter>
<filter id="filter10_df" x="80.7578" y="23.7073" width="15.0132" height="15.0132" filterUnits="userSpaceOnUse" color-interpolation-filters="sRGB">
<feFlood flood-opacity="0" result="BackgroundImageFix"/>
<feColorMatrix in="SourceAlpha" type="matrix" values="0 0 0 0 0 0 0 0 0 0 0 0 0 0 0 0 0 0 127 0" result="hardAlpha"/>
<feOffset/>
<feGaussianBlur stdDeviation="2.81497"/>
<feComposite in2="hardAlpha" operator="out"/>
<feColorMatrix type="matrix" values="0 0 0 0 0.533333 0 0 0 0 0.804 0 0 0 0 1 0 0 0 1 0"/>
<feBlend mode="normal" in2="BackgroundImageFix" result="effect1_dropShadow"/>
<feBlend mode="normal" in="SourceGraphic" in2="effect1_dropShadow" result="shape"/>
<feGaussianBlur stdDeviation="0.187665" result="effect2_foregroundBlur"/>
</filter>
<filter id="filter11_df" x="84.1357" y="10.1955" width="15.0132" height="15.0132" filterUnits="userSpaceOnUse" color-interpolation-filters="sRGB">
<feFlood flood-opacity="0" result="BackgroundImageFix"/>
<feColorMatrix in="SourceAlpha" type="matrix" values="0 0 0 0 0 0 0 0 0 0 0 0 0 0 0 0 0 0 127 0" result="hardAlpha"/>
<feOffset/>
<feGaussianBlur stdDeviation="2.81497"/>
<feComposite in2="hardAlpha" operator="out"/>
<feColorMatrix type="matrix" values="0 0 0 0 0.533333 0 0 0 0 0.804 0 0 0 0 1 0 0 0 1 0"/>
<feBlend mode="normal" in2="BackgroundImageFix" result="effect1_dropShadow"/>
<feBlend mode="normal" in="SourceGraphic" in2="effect1_dropShadow" result="shape"/>
<feGaussianBlur stdDeviation="0.187665" result="effect2_foregroundBlur"/>
</filter>
<filter id="filter12_df" x="88.8271" y="30.2756" width="15.0132" height="15.0132" filterUnits="userSpaceOnUse" color-interpolation-filters="sRGB">
<feFlood flood-opacity="0" result="BackgroundImageFix"/>
<feColorMatrix in="SourceAlpha" type="matrix" values="0 0 0 0 0 0 0 0 0 0 0 0 0 0 0 0 0 0 127 0" result="hardAlpha"/>
<feOffset/>
<feGaussianBlur stdDeviation="2.81497"/>
<feComposite in2="hardAlpha" operator="out"/>
<feColorMatrix type="matrix" values="0 0 0 0 0.533333 0 0 0 0 0.804 0 0 0 0 1 0 0 0 1 0"/>
<feBlend mode="normal" in2="BackgroundImageFix" result="effect1_dropShadow"/>
<feBlend mode="normal" in="SourceGraphic" in2="effect1_dropShadow" result="shape"/>
<feGaussianBlur stdDeviation="0.187665" result="effect2_foregroundBlur"/>
</filter>
<filter id="filter13_df" x="85.0742" y="51.6693" width="15.0132" height="15.0132" filterUnits="userSpaceOnUse" color-interpolation-filters="sRGB">
<feFlood flood-opacity="0" result="BackgroundImageFix"/>
<feColorMatrix in="SourceAlpha" type="matrix" values="0 0 0 0 0 0 0 0 0 0 0 0 0 0 0 0 0 0 127 0" result="hardAlpha"/>
<feOffset/>
<feGaussianBlur stdDeviation="2.81497"/>
<feComposite in2="hardAlpha" operator="out"/>
<feColorMatrix type="matrix" values="0 0 0 0 0.533333 0 0 0 0 0.804 0 0 0 0 1 0 0 0 1 0"/>
<feBlend mode="normal" in2="BackgroundImageFix" result="effect1_dropShadow"/>
<feBlend mode="normal" in="SourceGraphic" in2="effect1_dropShadow" result="shape"/>
<feGaussianBlur stdDeviation="0.187665" result="effect2_foregroundBlur"/>
</filter>
<filter id="filter14_df" x="96.3339" y="89.5777" width="15.0132" height="15.0132" filterUnits="userSpaceOnUse" color-interpolation-filters="sRGB">
<feFlood flood-opacity="0" result="BackgroundImageFix"/>
<feColorMatrix in="SourceAlpha" type="matrix" values="0 0 0 0 0 0 0 0 0 0 0 0 0 0 0 0 0 0 127 0" result="hardAlpha"/>
<feOffset/>
<feGaussianBlur stdDeviation="2.81497"/>
<feComposite in2="hardAlpha" operator="out"/>
<feColorMatrix type="matrix" values="0 0 0 0 0.533333 0 0 0 0 0.804 0 0 0 0 1 0 0 0 1 0"/>
<feBlend mode="normal" in2="BackgroundImageFix" result="effect1_dropShadow"/>
<feBlend mode="normal" in="SourceGraphic" in2="effect1_dropShadow" result="shape"/>
<feGaussianBlur stdDeviation="0.187665" result="effect2_foregroundBlur"/>
</filter>
<filter id="filter15_df" x="82.6337" y="116.977" width="15.0132" height="15.0132" filterUnits="userSpaceOnUse" color-interpolation-filters="sRGB">
<feFlood flood-opacity="0" result="BackgroundImageFix"/>
<feColorMatrix in="SourceAlpha" type="matrix" values="0 0 0 0 0 0 0 0 0 0 0 0 0 0 0 0 0 0 127 0" result="hardAlpha"/>
<feOffset/>
<feGaussianBlur stdDeviation="2.81497"/>
<feComposite in2="hardAlpha" operator="out"/>
<feColorMatrix type="matrix" values="0 0 0 0 0.533333 0 0 0 0 0.804 0 0 0 0 1 0 0 0 1 0"/>
<feBlend mode="normal" in2="BackgroundImageFix" result="effect1_dropShadow"/>
<feBlend mode="normal" in="SourceGraphic" in2="effect1_dropShadow" result="shape"/>
<feGaussianBlur stdDeviation="0.187665" result="effect2_foregroundBlur"/>
</filter>
<filter id="filter16_df" x="81.6962" y="79.256" width="15.0132" height="15.0132" filterUnits="userSpaceOnUse" color-interpolation-filters="sRGB">
<feFlood flood-opacity="0" result="BackgroundImageFix"/>
<feColorMatrix in="SourceAlpha" type="matrix" values="0 0 0 0 0 0 0 0 0 0 0 0 0 0 0 0 0 0 127 0" result="hardAlpha"/>
<feOffset/>
<feGaussianBlur stdDeviation="2.81497"/>
<feComposite in2="hardAlpha" operator="out"/>
<feColorMatrix type="matrix" values="0 0 0 0 0.533333 0 0 0 0 0.804 0 0 0 0 1 0 0 0 1 0"/>
<feBlend mode="normal" in2="BackgroundImageFix" result="effect1_dropShadow"/>
<feBlend mode="normal" in="SourceGraphic" in2="effect1_dropShadow" result="shape"/>
<feGaussianBlur stdDeviation="0.187665" result="effect2_foregroundBlur"/>
</filter>
<filter id="filter17_f" x="27.3448" y="9.3447" width="136.31" height="136.31" filterUnits="userSpaceOnUse" color-interpolation-filters="sRGB">
<feFlood flood-opacity="0" result="BackgroundImageFix"/>
<feBlend mode="normal" in="SourceGraphic" in2="BackgroundImageFix" result="shape"/>
<feGaussianBlur stdDeviation="17.3276" result="effect1_foregroundBlur"/>
</filter>
</defs>
</svg>
