<svg width="238" height="193" viewBox="0 0 238 193" fill="none" xmlns="http://www.w3.org/2000/svg">
<path d="M76.2782 50.1002L80.1504 38.4714M76.2782 50.1002L86.9268 64.6363M76.2782 50.1002H86.9268M76.2782 50.1002V63.6672L80.1504 78.2032M80.1504 38.4714L86.9268 50.1002M80.1504 38.4714L84.0227 28.7807M86.9268 50.1002L84.0227 33.626V28.7807M86.9268 50.1002L99.5116 45.2549M86.9268 50.1002V64.6363M86.9268 50.1002L102.416 51.0693M84.0227 28.7807L99.5116 14.2446M84.0227 28.7807L103.384 33.626M84.0227 28.7807L99.5116 45.2549M99.5116 14.2446L103.384 33.626M99.5116 14.2446L140.17 37.5023M99.5116 14.2446L108.224 8.43018M99.5116 14.2446L132.426 23.9353M103.384 33.626L99.5116 45.2549M103.384 33.626L140.17 37.5023M99.5116 45.2549L140.17 37.5023M99.5116 45.2549L102.416 51.0693M140.17 37.5023L132.426 23.9353M140.17 37.5023L173.084 21.0281M140.17 37.5023L146.559 16.1827M140.17 37.5023L158.563 42.3476M140.17 37.5023L133.394 75.296M140.17 37.5023L102.416 51.0693M140.17 37.5023L107.256 89.8321M140.17 37.5023L103.384 71.4198M140.17 37.5023L159.531 71.4198M140.17 37.5023L146.462 73.3579M108.224 8.43018H148.883M108.224 8.43018L128.553 14.2446M108.224 8.43018L132.426 23.9353M148.883 8.43018L128.553 14.2446M148.883 8.43018L132.426 23.9353M148.883 8.43018L173.084 21.0281M148.883 8.43018L146.559 16.1827M128.553 14.2446L132.426 23.9353M173.084 21.0281L186.637 45.2549M173.084 21.0281L146.559 16.1827M173.084 21.0281L165.824 31.6879M186.637 45.2549L179.86 68.5125M186.637 45.2549L159.531 71.4198M186.637 45.2549L158.563 42.3476M186.637 45.2549L186.712 46.0278M189.541 75.296L183.733 95.6465M189.541 75.296L176.956 86.9249M189.541 75.296L178.892 80.1414M189.541 75.296L179.86 68.5125M189.541 75.296L186.712 46.0278M183.733 95.6465L171.148 116.966M183.733 95.6465L170.18 96.3606M171.148 116.966L172.475 122.78M171.148 116.966L156.627 121.811M171.148 116.966L152.755 103.399M171.148 116.966L165.34 96.6156M171.148 116.966L170.18 96.3606M156.627 121.811L178.892 150.884L172.475 122.78M156.627 121.811L172.475 122.78M156.627 121.811L155.659 131.502M155.659 131.502L145.978 116.966M155.659 131.502V163.481M145.978 116.966L152.755 103.399M145.978 116.966L127.585 96.6156M145.978 116.966L143.074 121.811M152.755 103.399L127.585 96.6156M152.755 103.399L153.781 98.5537M152.755 103.399L155.659 100.492L165.34 96.6156M165.34 96.6156L170.18 96.3606M127.585 96.6156L133.394 75.296M127.585 96.6156L107.256 89.8321M127.585 96.6156L103.384 111.152M127.585 96.6156L118.873 116.966M127.585 96.6156V135.378M127.585 96.6156L153.781 98.5537M127.585 96.6156L143.074 121.811M127.585 96.6156L143.558 84.0177M159.531 71.4198L158.563 75.9882M159.531 71.4198L146.462 73.3579M159.531 71.4198L158.563 42.3476M159.531 71.4198L143.558 84.0177M133.394 75.296L146.462 73.3579M133.394 75.296L143.558 84.0177M107.256 89.8321L103.384 111.152M107.256 89.8321L92.7352 95.6465M107.256 89.8321L103.384 71.4198M103.384 111.152L113.064 137.317M103.384 111.152L118.873 116.966M103.384 111.152L101.448 119.873M103.384 111.152L92.7352 95.6465M113.064 137.317L118.873 116.966M113.064 137.317L127.585 135.378M113.064 137.317L101.448 119.873M113.064 137.317L120.809 159.605L125.688 142.162M113.064 137.317L103.384 141.193M118.873 116.966L127.585 135.378M127.585 135.378L143.074 121.811M127.585 135.378L137.266 160.574M127.585 135.378L125.688 142.162M127.585 135.378L144.042 137.317M127.585 135.378L144.042 147.007M153.781 98.5537L154.603 94.6774M153.781 98.5537L143.558 84.0177M143.074 121.811L144.042 137.317M101.448 119.873L95.6394 126.657M101.448 119.873L103.384 141.193M101.448 119.873L85.9588 109.214M101.448 119.873H87.8949M101.448 119.873L83.0546 115.028M92.7352 95.6465L91.7671 100.492M92.7352 95.6465L86.5271 89.8321M92.7352 95.6465L86.9268 64.6363M137.266 160.574L125.688 142.162M137.266 160.574L155.659 163.481M144.042 137.317V147.007M144.042 137.317L155.659 163.481M144.042 147.007L155.659 163.481M103.384 141.193L93.7032 140.224M103.384 141.193L95.6394 126.657M93.7032 140.224L87.8949 137.317M93.7032 140.224L95.6394 126.657M87.8949 137.317L84.0227 132.471L84.9907 122.78M87.8949 137.317L95.6394 126.657M87.8949 137.317L84.9907 122.78M84.9907 122.78L87.8949 119.873M84.9907 122.78L95.6394 126.657M84.9907 122.78L80.1504 117.935M87.8949 119.873L95.6394 126.657M87.8949 119.873L80.1504 117.935M80.1504 110.183L85.9588 109.214M80.1504 110.183L83.0546 115.028M80.1504 110.183L81.6993 102.43M85.9588 109.214L91.7671 100.492M80.1504 117.935L83.0546 115.028M91.7671 100.492L86.9268 101.461M86.9268 101.461L82.0865 100.492L81.6993 102.43M86.9268 101.461L79.1824 92.7393M170.18 96.3606L176.956 86.9249M176.956 86.9249L178.892 80.1414M178.892 80.1414L175.988 75.296M175.988 75.296L171.148 73.3579H165.34L159.531 75.296L158.563 75.9882M175.988 75.296L179.86 68.5125M158.563 75.9882L157.478 81.1105M157.478 81.1105L164.371 78.2032L169.212 81.1105V84.0177L167.276 88.863L163.403 93.7084L154.603 94.6774M157.478 81.1105L154.603 94.6774M158.563 42.3476L165.824 31.6879M102.416 51.0693L103.384 71.4198M103.384 71.4198L86.9268 64.6363M165.824 31.6879L186.712 46.0278M81.6993 102.43L74.3421 95.6465L73.374 91.7702M73.374 91.7702L79.1824 92.7393M73.374 91.7702L80.1504 78.2032M79.1824 92.7393L86.5271 89.8321M86.5271 89.8321L86.9268 64.6363M86.9268 64.6363L80.1504 78.2032" stroke="#8FFFFF" stroke-width="0.237346"/>
<g filter="url(#filter0_f)">
<ellipse cx="131.458" cy="70.4021" rx="36.6971" ry="31.8365" fill="#0478FF" fill-opacity="0.41"/>
</g>
<g filter="url(#filter1_df)">
<path d="M142.137 36.7988C142.279 38.5074 141.421 39.9733 140.22 40.0729C139.02 40.1726 137.932 38.8682 137.79 37.1596C137.648 35.451 138.506 33.9851 139.707 33.8855C140.907 33.7859 141.995 35.0902 142.137 36.7988Z" fill="#0075FF"/>
<path d="M142.021 36.8084C142.09 37.6417 141.915 38.4109 141.581 38.9804C141.248 39.5502 140.763 39.911 140.211 39.9569C139.659 40.0027 139.121 39.7268 138.698 39.2198C138.275 38.7131 137.975 37.9833 137.906 37.15C137.837 36.3167 138.012 35.5475 138.346 34.978C138.679 34.4082 139.164 34.0474 139.716 34.0015C140.268 33.9557 140.806 34.2316 141.229 34.7386C141.652 35.2453 141.952 35.9751 142.021 36.8084Z" stroke="white" stroke-opacity="0.62" stroke-width="0.232894"/>
</g>
<g filter="url(#filter2_df)">
<path d="M141.034 37.2547C141.068 37.6698 140.753 38.0347 140.33 38.0699C139.906 38.105 139.535 37.797 139.501 37.3819C139.466 36.9669 139.782 36.6019 140.205 36.5668C140.628 36.5316 140.999 36.8396 141.034 37.2547Z" fill="white"/>
<path d="M140.918 37.2643C140.947 37.6132 140.681 37.9238 140.32 37.9538C139.959 37.9838 139.646 37.7212 139.617 37.3723C139.588 37.0235 139.853 36.7128 140.215 36.6828C140.576 36.6528 140.889 36.9155 140.918 37.2643Z" stroke="white" stroke-opacity="0.62" stroke-width="0.232894"/>
</g>
<g filter="url(#filter3_df)">
<path d="M101.309 45.0617C101.451 46.7703 100.593 48.2362 99.3922 48.3359C98.1918 48.4355 97.1037 47.1312 96.9619 45.4226C96.8201 43.714 97.6782 42.2481 98.8785 42.1484C100.079 42.0488 101.167 43.3531 101.309 45.0617Z" fill="#0075FF"/>
<path d="M101.193 45.0714C101.262 45.9047 101.087 46.6739 100.753 47.2433C100.42 47.8131 99.9346 48.174 99.3825 48.2198C98.8304 48.2656 98.2924 47.9897 97.8695 47.4827C97.4468 46.976 97.1471 46.2463 97.0779 45.4129C97.0088 44.5796 97.184 43.8104 97.5174 43.241C97.8509 42.6712 98.3361 42.3103 98.8882 42.2645C99.4403 42.2187 99.9783 42.4946 100.401 43.0016C100.824 43.5083 101.124 44.238 101.193 45.0714Z" stroke="white" stroke-opacity="0.62" stroke-width="0.232894"/>
</g>
<g filter="url(#filter4_df)">
<path d="M100.203 45.5178C100.237 45.9328 99.9219 46.2978 99.4986 46.3329C99.0753 46.3681 98.7043 46.0601 98.6698 45.645C98.6354 45.2299 98.9506 44.8649 99.3739 44.8298C99.7972 44.7947 100.168 45.1027 100.203 45.5178Z" fill="white"/>
<path d="M100.087 45.5274C100.116 45.8762 99.8504 46.1869 99.489 46.2169C99.1276 46.2469 98.8148 45.9842 98.7859 45.6354C98.7569 45.2865 99.0221 44.9759 99.3835 44.9459C99.7448 44.9159 100.058 45.1785 100.087 45.5274Z" stroke="white" stroke-opacity="0.62" stroke-width="0.232894"/>
</g>
<g filter="url(#filter5_df)">
<path d="M109.087 88.8066C109.229 90.5152 108.371 91.9811 107.17 92.0807C105.97 92.1804 104.882 90.876 104.74 89.1674C104.598 87.4588 105.456 85.993 106.657 85.8933C107.857 85.7937 108.945 87.098 109.087 88.8066Z" fill="#0075FF"/>
<path d="M108.971 88.8162C109.04 89.6496 108.865 90.4188 108.532 90.9882C108.198 91.558 107.713 91.9189 107.161 91.9647C106.609 92.0105 106.071 91.7346 105.648 91.2276C105.225 90.7209 104.925 89.9911 104.856 89.1578C104.787 88.3245 104.962 87.5553 105.296 86.9858C105.629 86.416 106.114 86.0552 106.666 86.0094C107.219 85.9635 107.757 86.2395 108.18 86.7465C108.602 87.2532 108.902 87.9829 108.971 88.8162Z" stroke="white" stroke-opacity="0.62" stroke-width="0.232894"/>
</g>
<g filter="url(#filter6_df)">
<path d="M107.984 89.2624C108.018 89.6775 107.703 90.0424 107.28 90.0776C106.857 90.1127 106.486 89.8047 106.451 89.3896C106.417 88.9745 106.732 88.6096 107.155 88.5744C107.578 88.5393 107.949 88.8473 107.984 89.2624Z" fill="white"/>
<path d="M107.868 89.272C107.897 89.6209 107.632 89.9315 107.27 89.9615C106.909 89.9915 106.596 89.7288 106.567 89.38C106.538 89.0311 106.803 88.7205 107.165 88.6905C107.526 88.6605 107.839 88.9232 107.868 89.272Z" stroke="white" stroke-opacity="0.62" stroke-width="0.232894"/>
</g>
<g filter="url(#filter7_df)">
<path d="M129.985 96.0974C130.126 97.806 129.268 99.2719 128.068 99.3715C126.868 99.4711 125.779 98.1668 125.638 96.4582C125.496 94.7496 126.354 93.2837 127.554 93.1841C128.755 93.0844 129.843 94.3888 129.985 96.0974Z" fill="#0075FF"/>
<path d="M129.869 96.107C129.938 96.9403 129.762 97.7095 129.429 98.279C129.096 98.8488 128.61 99.2096 128.058 99.2555C127.506 99.3013 126.968 99.0254 126.545 98.5184C126.123 98.0117 125.823 97.2819 125.754 96.4486C125.685 95.6153 125.86 94.8461 126.193 94.2766C126.527 93.7068 127.012 93.346 127.564 93.3001C128.116 93.2543 128.654 93.5302 129.077 94.0372C129.5 94.5439 129.799 95.2737 129.869 96.107Z" stroke="white" stroke-opacity="0.62" stroke-width="0.232894"/>
</g>
<g filter="url(#filter8_df)">
<path d="M128.881 96.5534C128.916 96.9685 128.601 97.3335 128.177 97.3686C127.754 97.4037 127.383 97.0957 127.349 96.6806C127.314 96.2656 127.629 95.9006 128.053 95.8655C128.476 95.8303 128.847 96.1383 128.881 96.5534Z" fill="white"/>
<path d="M128.765 96.563C128.794 96.9119 128.529 97.2225 128.168 97.2525C127.806 97.2825 127.494 97.0199 127.465 96.671C127.436 96.3222 127.701 96.0115 128.062 95.9815C128.424 95.9515 128.736 96.2142 128.765 96.563Z" stroke="white" stroke-opacity="0.62" stroke-width="0.232894"/>
</g>
<g filter="url(#filter9_df)">
<path d="M57.0774 59.1573C57.2192 60.8659 56.3611 62.3318 55.1607 62.4314C53.9603 62.5311 52.8723 61.2268 52.7304 59.5181C52.5886 57.8095 53.4467 56.3437 54.6471 56.244C55.8475 56.1444 56.9355 57.4487 57.0774 59.1573Z" fill="#0075FF"/>
<path d="M56.9613 59.1669C57.0305 60.0003 56.8552 60.7695 56.5219 61.3389C56.1883 61.9087 55.7032 62.2696 55.1511 62.3154C54.599 62.3612 54.061 62.0853 53.638 61.5783C53.2154 61.0716 52.9157 60.3418 52.8465 59.5085C52.7773 58.6752 52.9526 57.906 53.2859 57.3366C53.6195 56.7667 54.1046 56.4059 54.6567 56.3601C55.2088 56.3142 55.7468 56.5902 56.1698 57.0972C56.5925 57.6039 56.8921 58.3336 56.9613 59.1669Z" stroke="white" stroke-opacity="0.62" stroke-width="0.232894"/>
</g>
<g filter="url(#filter10_df)">
<path d="M55.9742 59.6131C56.0086 60.0282 55.6934 60.3931 55.2701 60.4283C54.8468 60.4634 54.4757 60.1554 54.4413 59.7403C54.4068 59.3253 54.7221 58.9603 55.1453 58.9251C55.5686 58.89 55.9397 59.198 55.9742 59.6131Z" fill="white"/>
<path d="M55.8581 59.6227C55.8871 59.9716 55.6218 60.2822 55.2605 60.3122C54.8991 60.3422 54.5863 60.0796 54.5573 59.7307C54.5284 59.3818 54.7936 59.0712 55.155 59.0412C55.5163 59.0112 55.8292 59.2739 55.8581 59.6227Z" stroke="white" stroke-opacity="0.62" stroke-width="0.232894"/>
</g>
<g filter="url(#filter11_df)">
<path d="M89.1584 64.0177C89.3003 65.7263 88.4421 67.1921 87.2418 67.2918C86.0414 67.3914 84.9533 66.0871 84.8115 64.3785C84.6697 62.6699 85.5278 61.204 86.7282 61.1044C87.9285 61.0047 89.0166 62.3091 89.1584 64.0177Z" fill="#0075FF"/>
<path d="M89.0424 64.0273C89.1116 64.8606 88.9363 65.6298 88.6029 66.1993C88.2694 66.7691 87.7842 67.1299 87.2321 67.1757C86.68 67.2216 86.142 66.9457 85.7191 66.4386C85.2964 65.932 84.9967 65.2022 84.9275 64.3689C84.8584 63.5355 85.0336 62.7664 85.367 62.1969C85.7006 61.6271 86.1857 61.2663 86.7378 61.2204C87.2899 61.1746 87.8279 61.4505 88.2508 61.9575C88.6735 62.4642 88.9732 63.194 89.0424 64.0273Z" stroke="white" stroke-opacity="0.62" stroke-width="0.232894"/>
</g>
<g filter="url(#filter12_df)">
<path d="M88.0523 64.4738C88.0867 64.8889 87.7715 65.2539 87.3482 65.289C86.9249 65.3241 86.5539 65.0161 86.5194 64.6011C86.485 64.186 86.8002 63.821 87.2235 63.7859C87.6468 63.7507 88.0178 64.0587 88.0523 64.4738Z" fill="white"/>
<path d="M87.9362 64.4834C87.9652 64.8323 87.7 65.143 87.3386 65.1729C86.9773 65.2029 86.6644 64.9403 86.6355 64.5914C86.6065 64.2426 86.8717 63.9319 87.2331 63.9019C87.5945 63.8719 87.9073 64.1346 87.9362 64.4834Z" stroke="white" stroke-opacity="0.62" stroke-width="0.232894"/>
</g>
<g filter="url(#filter13_df)">
<path d="M82.3518 77.1413C82.4936 78.8499 81.6355 80.3158 80.4351 80.4154C79.2347 80.5151 78.1467 79.2108 78.0049 77.5022C77.863 75.7935 78.7211 74.3277 79.9215 74.228C81.1219 74.1284 82.21 75.4327 82.3518 77.1413Z" fill="#0075FF"/>
<path d="M82.2357 77.151C82.3049 77.9843 82.1296 78.7535 81.7963 79.3229C81.4627 79.8927 80.9776 80.2536 80.4255 80.2994C79.8734 80.3452 79.3354 80.0693 78.9125 79.5623C78.4898 79.0556 78.1901 78.3258 78.1209 77.4925C78.0517 76.6592 78.227 75.89 78.5604 75.3206C78.8939 74.7508 79.379 74.3899 79.9311 74.3441C80.4833 74.2982 81.0212 74.5742 81.4442 75.0812C81.8669 75.5879 82.1666 76.3176 82.2357 77.151Z" stroke="white" stroke-opacity="0.62" stroke-width="0.232894"/>
</g>
<g filter="url(#filter14_df)">
<path d="M81.2486 77.5973C81.283 78.0124 80.9678 78.3774 80.5445 78.4125C80.1212 78.4477 79.7502 78.1397 79.7157 77.7246C79.6813 77.3095 79.9965 76.9445 80.4198 76.9094C80.843 76.8743 81.2141 77.1823 81.2486 77.5973Z" fill="white"/>
<path d="M81.1325 77.607C81.1615 77.9558 80.8963 78.2665 80.5349 78.2965C80.1735 78.3265 79.8607 78.0638 79.8318 77.715C79.8028 77.3661 80.068 77.0554 80.4294 77.0254C80.7907 76.9955 81.1036 77.2581 81.1325 77.607Z" stroke="white" stroke-opacity="0.62" stroke-width="0.232894"/>
</g>
<g filter="url(#filter15_df)">
<path d="M106.171 70.8227C106.313 72.5313 105.455 73.9972 104.254 74.0968C103.054 74.1965 101.966 72.8922 101.824 71.1836C101.682 69.4749 102.54 68.0091 103.741 67.9094C104.941 67.8098 106.029 69.1141 106.171 70.8227Z" fill="#0075FF"/>
<path d="M106.055 70.8324C106.124 71.6657 105.949 72.4349 105.616 73.0043C105.282 73.5741 104.797 73.935 104.245 73.9808C103.693 74.0266 103.155 73.7507 102.732 73.2437C102.309 72.737 102.009 72.0072 101.94 71.1739C101.871 70.3406 102.046 69.5714 102.38 69.002C102.713 68.4321 103.198 68.0713 103.75 68.0255C104.303 67.9796 104.841 68.2556 105.264 68.7626C105.686 69.2693 105.986 69.999 106.055 70.8324Z" stroke="white" stroke-opacity="0.62" stroke-width="0.232894"/>
</g>
<g filter="url(#filter16_df)">
<path d="M105.065 71.2785C105.099 71.6936 104.784 72.0585 104.361 72.0937C103.938 72.1288 103.567 71.8208 103.532 71.4057C103.498 70.9907 103.813 70.6257 104.236 70.5906C104.659 70.5554 105.031 70.8634 105.065 71.2785Z" fill="white"/>
<path d="M104.949 71.2881C104.978 71.637 104.713 71.9476 104.351 71.9776C103.99 72.0076 103.677 71.745 103.648 71.3961C103.619 71.0473 103.884 70.7366 104.246 70.7066C104.607 70.6766 104.92 70.9393 104.949 71.2881Z" stroke="white" stroke-opacity="0.62" stroke-width="0.232894"/>
</g>
<g filter="url(#filter17_df)">
<path d="M161.582 70.8227C161.724 72.5313 160.866 73.9972 159.666 74.0968C158.465 74.1965 157.377 72.8922 157.235 71.1836C157.093 69.4749 157.952 68.0091 159.152 67.9094C160.352 67.8098 161.44 69.1141 161.582 70.8227Z" fill="#0075FF"/>
<path d="M161.466 70.8324C161.535 71.6657 161.36 72.4349 161.027 73.0043C160.693 73.5741 160.208 73.935 159.656 73.9808C159.104 74.0266 158.566 73.7507 158.143 73.2437C157.72 72.737 157.421 72.0072 157.351 71.1739C157.282 70.3406 157.457 69.5714 157.791 69.002C158.124 68.4321 158.609 68.0713 159.162 68.0255C159.714 67.9796 160.252 68.2556 160.675 68.7626C161.097 69.2693 161.397 69.999 161.466 70.8324Z" stroke="white" stroke-opacity="0.62" stroke-width="0.232894"/>
</g>
<g filter="url(#filter18_df)">
<path d="M160.474 71.2785C160.509 71.6936 160.193 72.0585 159.77 72.0937C159.347 72.1288 158.976 71.8208 158.941 71.4057C158.907 70.9907 159.222 70.6257 159.645 70.5906C160.069 70.5554 160.44 70.8634 160.474 71.2785Z" fill="white"/>
<path d="M160.358 71.2881C160.387 71.637 160.122 71.9476 159.76 71.9776C159.399 72.0076 159.086 71.745 159.057 71.3961C159.028 71.0473 159.294 70.7366 159.655 70.7066C160.016 70.6766 160.329 70.9393 160.358 71.2881Z" stroke="white" stroke-opacity="0.62" stroke-width="0.232894"/>
</g>
<g filter="url(#filter19_df)">
<path d="M111.03 9.09372C111.172 10.8023 110.314 12.2682 109.114 12.3678C107.913 12.4675 106.825 11.1632 106.684 9.45455C106.542 7.74594 107.4 6.28006 108.6 6.18042C109.801 6.08078 110.889 7.38511 111.03 9.09372Z" fill="#0075FF"/>
<path d="M110.914 9.10335C110.984 9.93667 110.808 10.7059 110.475 11.2753C110.141 11.8451 109.656 12.206 109.104 12.2518C108.552 12.2976 108.014 12.0217 107.591 11.5147C107.168 11.008 106.869 10.2782 106.8 9.44491C106.73 8.61159 106.906 7.8424 107.239 7.27295C107.573 6.70314 108.058 6.3423 108.61 6.29647C109.162 6.25064 109.7 6.52656 110.123 7.03357C110.546 7.54026 110.845 8.27003 110.914 9.10335Z" stroke="white" stroke-opacity="0.62" stroke-width="0.232894"/>
</g>
<g filter="url(#filter20_df)">
<path d="M109.925 9.54949C109.96 9.96457 109.645 10.3295 109.221 10.3647C108.798 10.3998 108.427 10.0918 108.392 9.67674C108.358 9.26166 108.673 8.89669 109.097 8.86155C109.52 8.82641 109.891 9.13442 109.925 9.54949Z" fill="white"/>
<path d="M109.809 9.55913C109.838 9.90798 109.573 10.2186 109.212 10.2486C108.85 10.2786 108.537 10.016 108.509 9.6671C108.48 9.31825 108.745 9.00759 109.106 8.9776C109.468 8.9476 109.78 9.21027 109.809 9.55913Z" stroke="white" stroke-opacity="0.62" stroke-width="0.232894"/>
</g>
<g filter="url(#filter21_df)">
<path d="M154.774 102.416C154.915 104.125 154.057 105.59 152.857 105.69C151.657 105.79 150.569 104.485 150.427 102.777C150.285 101.068 151.143 99.6023 152.343 99.5027C153.544 99.403 154.632 100.707 154.774 102.416Z" fill="#0075FF"/>
<path d="M154.658 102.426C154.727 103.259 154.552 104.028 154.218 104.598C153.885 105.167 153.399 105.528 152.847 105.574C152.295 105.62 151.757 105.344 151.334 104.837C150.912 104.33 150.612 103.601 150.543 102.767C150.474 101.934 150.649 101.165 150.982 100.595C151.316 100.025 151.801 99.6646 152.353 99.6187C152.905 99.5729 153.443 99.8488 153.866 100.356C154.289 100.863 154.588 101.592 154.658 102.426Z" stroke="white" stroke-opacity="0.62" stroke-width="0.232894"/>
</g>
<g filter="url(#filter22_df)">
<path d="M153.672 102.872C153.707 103.287 153.392 103.652 152.968 103.687C152.545 103.722 152.174 103.414 152.14 102.999C152.105 102.584 152.42 102.219 152.844 102.184C153.267 102.149 153.638 102.457 153.672 102.872Z" fill="white"/>
<path d="M153.556 102.882C153.585 103.23 153.32 103.541 152.959 103.571C152.597 103.601 152.285 103.338 152.256 102.99C152.227 102.641 152.492 102.33 152.853 102.3C153.215 102.27 153.527 102.533 153.556 102.882Z" stroke="white" stroke-opacity="0.62" stroke-width="0.232894"/>
</g>
<g filter="url(#filter23_df)">
<path d="M158.665 121.372C158.807 123.081 157.949 124.547 156.749 124.646C155.548 124.746 154.46 123.442 154.318 121.733C154.176 120.025 155.035 118.559 156.235 118.459C157.435 118.359 158.523 119.664 158.665 121.372Z" fill="#0075FF"/>
<path d="M158.549 121.382C158.618 122.215 158.443 122.984 158.11 123.554C157.776 124.124 157.291 124.485 156.739 124.53C156.187 124.576 155.649 124.3 155.226 123.793C154.803 123.287 154.504 122.557 154.434 121.723C154.365 120.89 154.54 120.121 154.874 119.552C155.207 118.982 155.693 118.621 156.245 118.575C156.797 118.529 157.335 118.805 157.758 119.312C158.18 119.819 158.48 120.549 158.549 121.382Z" stroke="white" stroke-opacity="0.62" stroke-width="0.232894"/>
</g>
<g filter="url(#filter24_df)">
<path d="M157.56 121.828C157.595 122.243 157.279 122.608 156.856 122.643C156.433 122.678 156.062 122.37 156.027 121.955C155.993 121.54 156.308 121.175 156.731 121.14C157.155 121.105 157.526 121.413 157.56 121.828Z" fill="white"/>
<path d="M157.444 121.838C157.473 122.187 157.208 122.497 156.846 122.527C156.485 122.557 156.172 122.295 156.143 121.946C156.114 121.597 156.38 121.286 156.741 121.256C157.102 121.226 157.415 121.489 157.444 121.838Z" stroke="white" stroke-opacity="0.62" stroke-width="0.232894"/>
</g>
<g filter="url(#filter25_df)">
<path d="M172.759 116.026C172.901 117.734 172.043 119.2 170.842 119.3C169.642 119.399 168.554 118.095 168.412 116.387C168.27 114.678 169.128 113.212 170.329 113.112C171.529 113.013 172.617 114.317 172.759 116.026Z" fill="#0075FF"/>
<path d="M172.643 116.035C172.712 116.869 172.537 117.638 172.204 118.207C171.87 118.777 171.385 119.138 170.833 119.184C170.281 119.23 169.743 118.954 169.32 118.447C168.897 117.94 168.597 117.21 168.528 116.377C168.459 115.544 168.634 114.774 168.968 114.205C169.301 113.635 169.786 113.274 170.338 113.228C170.89 113.183 171.428 113.459 171.851 113.966C172.274 114.472 172.574 115.202 172.643 116.035Z" stroke="white" stroke-opacity="0.62" stroke-width="0.232894"/>
</g>
<g filter="url(#filter26_df)">
<path d="M171.656 116.482C171.69 116.897 171.375 117.262 170.952 117.297C170.528 117.332 170.157 117.024 170.123 116.609C170.088 116.194 170.404 115.829 170.827 115.794C171.25 115.758 171.621 116.066 171.656 116.482Z" fill="white"/>
<path d="M171.54 116.491C171.569 116.84 171.303 117.151 170.942 117.181C170.581 117.211 170.268 116.948 170.239 116.599C170.21 116.25 170.475 115.94 170.837 115.91C171.198 115.88 171.511 116.142 171.54 116.491Z" stroke="white" stroke-opacity="0.62" stroke-width="0.232894"/>
</g>
<g filter="url(#filter27_df)">
<path d="M103.253 119.428C103.395 121.137 102.537 122.603 101.336 122.702C100.136 122.802 99.048 121.498 98.9062 119.789C98.7644 118.08 99.6225 116.614 100.823 116.515C102.023 116.415 103.111 117.719 103.253 119.428Z" fill="#0075FF"/>
<path d="M103.137 119.438C103.206 120.271 103.031 121.04 102.698 121.61C102.364 122.179 101.879 122.54 101.327 122.586C100.775 122.632 100.237 122.356 99.8138 121.849C99.3911 121.342 99.0914 120.613 99.0223 119.779C98.9531 118.946 99.1284 118.177 99.4617 117.607C99.7953 117.037 100.28 116.677 100.833 116.631C101.385 116.585 101.923 116.861 102.346 117.368C102.768 117.875 103.068 118.604 103.137 119.438Z" stroke="white" stroke-opacity="0.62" stroke-width="0.232894"/>
</g>
<g filter="url(#filter28_df)">
<path d="M102.15 119.884C102.184 120.299 101.869 120.664 101.446 120.699C101.023 120.734 100.652 120.426 100.617 120.011C100.583 119.596 100.898 119.231 101.321 119.196C101.744 119.161 102.115 119.469 102.15 119.884Z" fill="white"/>
<path d="M102.034 119.894C102.063 120.242 101.798 120.553 101.436 120.583C101.075 120.613 100.762 120.35 100.733 120.002C100.704 119.653 100.969 119.342 101.331 119.312C101.692 119.282 102.005 119.545 102.034 119.894Z" stroke="white" stroke-opacity="0.62" stroke-width="0.232894"/>
</g>
<g filter="url(#filter29_df)">
<path d="M129.985 134.982C130.126 136.69 129.268 138.156 128.068 138.256C126.868 138.356 125.779 137.051 125.638 135.343C125.496 133.634 126.354 132.168 127.554 132.068C128.755 131.969 129.843 133.273 129.985 134.982Z" fill="#0075FF"/>
<path d="M129.869 134.991C129.938 135.825 129.762 136.594 129.429 137.163C129.096 137.733 128.61 138.094 128.058 138.14C127.506 138.186 126.968 137.91 126.545 137.403C126.123 136.896 125.823 136.166 125.754 135.333C125.685 134.5 125.86 133.73 126.193 133.161C126.527 132.591 127.012 132.23 127.564 132.185C128.116 132.139 128.654 132.415 129.077 132.922C129.5 133.428 129.799 134.158 129.869 134.991Z" stroke="white" stroke-opacity="0.62" stroke-width="0.232894"/>
</g>
<g filter="url(#filter30_df)">
<path d="M128.881 135.438C128.916 135.853 128.601 136.218 128.177 136.253C127.754 136.288 127.383 135.98 127.349 135.565C127.314 135.15 127.629 134.785 128.053 134.75C128.476 134.714 128.847 135.022 128.881 135.438Z" fill="white"/>
<path d="M128.765 135.447C128.794 135.796 128.529 136.107 128.168 136.137C127.806 136.167 127.494 135.904 127.465 135.555C127.436 135.206 127.701 134.896 128.062 134.866C128.424 134.836 128.736 135.098 128.765 135.447Z" stroke="white" stroke-opacity="0.62" stroke-width="0.232894"/>
</g>
<g filter="url(#filter31_df)">
<path d="M190.847 74.9318C190.932 75.957 190.417 76.8365 189.697 76.8963C188.977 76.9561 188.324 76.1735 188.239 75.1483C188.154 74.1232 188.669 73.2436 189.389 73.1839C190.109 73.1241 190.762 73.9067 190.847 74.9318Z" fill="#0075FF"/>
<path d="M190.731 74.9415C190.772 75.4331 190.668 75.8848 190.474 76.2173C190.279 76.5501 190 76.7544 189.688 76.7803C189.376 76.8062 189.066 76.6507 188.819 76.3546C188.573 76.0588 188.396 75.6303 188.355 75.1387C188.314 74.6471 188.418 74.1954 188.613 73.8629C188.807 73.5301 189.087 73.3258 189.399 73.2999C189.711 73.274 190.02 73.4295 190.267 73.7256C190.514 74.0214 190.69 74.4499 190.731 74.9415Z" stroke="white" stroke-opacity="0.62" stroke-width="0.232894"/>
</g>
<g filter="url(#filter32_df)">
<path d="M190.184 75.205C190.204 75.4541 190.015 75.6731 189.761 75.6942C189.507 75.7152 189.285 75.5304 189.264 75.2814C189.243 75.0323 189.432 74.8134 189.686 74.7923C189.94 74.7712 190.163 74.956 190.184 75.205Z" fill="white"/>
<path d="M190.068 75.2147C190.083 75.3975 189.944 75.5622 189.752 75.5781C189.56 75.594 189.395 75.4546 189.38 75.2718C189.365 75.0889 189.504 74.9243 189.696 74.9083C189.888 74.8924 190.052 75.0318 190.068 75.2147Z" stroke="white" stroke-opacity="0.62" stroke-width="0.232894"/>
</g>
<g filter="url(#filter33_df)">
<path d="M104.815 70.5572C104.9 71.5824 104.385 72.4619 103.665 72.5217C102.945 72.5815 102.292 71.7989 102.207 70.7737C102.122 69.7485 102.637 68.869 103.357 68.8092C104.077 68.7494 104.73 69.532 104.815 70.5572Z" fill="#0075FF"/>
<path d="M104.699 70.5668C104.74 71.0584 104.636 71.5102 104.441 71.8426C104.247 72.1754 103.967 72.3797 103.655 72.4056C103.343 72.4315 103.034 72.2761 102.787 71.98C102.54 71.6841 102.364 71.2557 102.323 70.7641C102.282 70.2725 102.386 69.8207 102.58 69.4883C102.775 69.1555 103.054 68.9512 103.366 68.9253C103.678 68.8994 103.988 69.0548 104.235 69.351C104.481 69.6468 104.658 70.0752 104.699 70.5668Z" stroke="white" stroke-opacity="0.62" stroke-width="0.232894"/>
</g>
<g filter="url(#filter34_df)">
<path d="M104.151 70.8309C104.172 71.0799 103.983 71.2989 103.729 71.32C103.475 71.3411 103.252 71.1563 103.232 70.9072C103.211 70.6582 103.4 70.4392 103.654 70.4181C103.908 70.397 104.131 70.5818 104.151 70.8309Z" fill="white"/>
<path d="M104.035 70.8405C104.051 71.0233 103.911 71.188 103.719 71.204C103.527 71.2199 103.363 71.0804 103.348 70.8976C103.333 70.7148 103.472 70.5501 103.664 70.5342C103.856 70.5182 104.02 70.6577 104.035 70.8405Z" stroke="white" stroke-opacity="0.62" stroke-width="0.232894"/>
</g>
<g filter="url(#filter35_df)">
<path d="M173.835 20.9797C173.92 22.0049 173.405 22.8844 172.685 22.9442C171.964 23.0039 171.311 22.2214 171.226 21.1962C171.141 20.171 171.656 19.2915 172.376 19.2317C173.097 19.1719 173.749 19.9545 173.835 20.9797Z" fill="#0075FF"/>
<path d="M173.718 20.9893C173.759 21.4809 173.656 21.9327 173.461 22.2651C173.266 22.5979 172.987 22.8022 172.675 22.8281C172.363 22.854 172.054 22.6986 171.807 22.4024C171.56 22.1066 171.383 21.6782 171.342 21.1866C171.302 20.695 171.405 20.2432 171.6 19.9108C171.795 19.578 172.074 19.3737 172.386 19.3478C172.698 19.3219 173.007 19.4773 173.254 19.7734C173.501 20.0693 173.678 20.4977 173.718 20.9893Z" stroke="white" stroke-opacity="0.62" stroke-width="0.232894"/>
</g>
<g filter="url(#filter36_df)">
<path d="M173.171 21.2531C173.192 21.5022 173.003 21.7212 172.749 21.7422C172.495 21.7633 172.272 21.5785 172.251 21.3295C172.231 21.0804 172.42 20.8614 172.674 20.8404C172.928 20.8193 173.15 21.0041 173.171 21.2531Z" fill="white"/>
<path d="M173.055 21.2628C173.07 21.4456 172.931 21.6103 172.739 21.6262C172.547 21.6421 172.383 21.5027 172.367 21.3198C172.352 21.137 172.491 20.9724 172.683 20.9564C172.875 20.9405 173.04 21.0799 173.055 21.2628Z" stroke="white" stroke-opacity="0.62" stroke-width="0.232894"/>
</g>
<g filter="url(#filter37_df)">
<path d="M159.712 42.1894C159.811 43.3854 159.21 44.4115 158.37 44.4813C157.53 44.551 156.768 43.638 156.669 42.442C156.57 41.2459 157.17 40.2198 158.011 40.1501C158.851 40.0803 159.613 40.9934 159.712 42.1894Z" fill="#0075FF"/>
<path d="M159.596 42.199C159.644 42.776 159.522 43.3071 159.293 43.6988C159.063 44.0909 158.733 44.3343 158.361 44.3652C157.989 44.3961 157.622 44.2105 157.331 43.8617C157.04 43.5132 156.833 43.0094 156.785 42.4323C156.737 41.8553 156.859 41.3242 157.088 40.9325C157.318 40.5404 157.648 40.297 158.02 40.2661C158.392 40.2352 158.759 40.4208 159.05 40.7697C159.34 41.1182 159.548 41.622 159.596 42.199Z" stroke="white" stroke-opacity="0.62" stroke-width="0.232894"/>
</g>
<g filter="url(#filter38_df)">
<path d="M158.942 42.5084C158.966 42.799 158.745 43.0545 158.449 43.0791C158.153 43.1037 157.893 42.8881 157.869 42.5975C157.845 42.307 158.065 42.0515 158.362 42.0269C158.658 42.0023 158.918 42.2179 158.942 42.5084Z" fill="white"/>
<path d="M158.826 42.5181C158.844 42.7424 158.674 42.9436 158.439 42.963C158.205 42.9825 158.004 42.8122 157.985 42.5879C157.966 42.3635 158.137 42.1624 158.371 42.1429C158.606 42.1235 158.807 42.2937 158.826 42.5181Z" stroke="white" stroke-opacity="0.62" stroke-width="0.232894"/>
</g>
<g filter="url(#filter39_df)">
<path d="M167.003 31.4963C167.102 32.6923 166.501 33.7184 165.661 33.7882C164.821 33.8579 164.059 32.9449 163.96 31.7488C163.861 30.5528 164.461 29.5267 165.302 29.457C166.142 29.3872 166.904 30.3002 167.003 31.4963Z" fill="#0075FF"/>
<path d="M166.887 31.5059C166.935 32.0829 166.813 32.614 166.584 33.0057C166.354 33.3978 166.024 33.6412 165.652 33.6721C165.28 33.703 164.913 33.5174 164.622 33.1686C164.331 32.82 164.124 32.3162 164.076 31.7392C164.028 31.1622 164.15 30.6311 164.379 30.2394C164.609 29.8473 164.939 29.6039 165.311 29.573C165.683 29.5421 166.05 29.7277 166.341 30.0765C166.631 30.4251 166.839 30.9289 166.887 31.5059Z" stroke="white" stroke-opacity="0.62" stroke-width="0.232894"/>
</g>
<g filter="url(#filter40_df)">
<path d="M166.232 31.8152C166.256 32.1058 166.035 32.3612 165.739 32.3858C165.443 32.4104 165.183 32.1948 165.159 31.9043C165.135 31.6137 165.355 31.3582 165.652 31.3336C165.948 31.309 166.208 31.5246 166.232 31.8152Z" fill="white"/>
<path d="M166.116 31.8248C166.134 32.0492 165.964 32.2503 165.729 32.2698C165.495 32.2892 165.294 32.119 165.275 31.8946C165.256 31.6703 165.427 31.4691 165.661 31.4497C165.896 31.4302 166.097 31.6005 166.116 31.8248Z" stroke="white" stroke-opacity="0.62" stroke-width="0.232894"/>
</g>
<g filter="url(#filter41_df)">
<path d="M187.418 45.1058C187.517 46.3018 186.917 47.3279 186.076 47.3976C185.236 47.4674 184.474 46.5544 184.375 45.3583C184.276 44.1623 184.876 43.1362 185.717 43.0665C186.557 42.9967 187.319 43.9097 187.418 45.1058Z" fill="#0075FF"/>
<path d="M187.302 45.1154C187.35 45.6924 187.228 46.2235 186.999 46.6152C186.769 47.0073 186.439 47.2507 186.067 47.2816C185.695 47.3125 185.328 47.1269 185.037 46.7781C184.746 46.4295 184.539 45.9257 184.491 45.3487C184.443 44.7717 184.565 44.2406 184.794 43.8489C185.024 43.4568 185.354 43.2134 185.726 43.1825C186.098 43.1516 186.465 43.3372 186.756 43.686C187.047 44.0346 187.254 44.5384 187.302 45.1154Z" stroke="white" stroke-opacity="0.62" stroke-width="0.232894"/>
</g>
<g filter="url(#filter42_df)">
<path d="M186.646 45.4248C186.67 45.7154 186.449 45.9709 186.153 45.9954C185.857 46.02 185.597 45.8044 185.573 45.5139C185.549 45.2233 185.769 44.9679 186.066 44.9433C186.362 44.9187 186.622 45.1343 186.646 45.4248Z" fill="white"/>
<path d="M186.53 45.4345C186.549 45.6588 186.378 45.8599 186.144 45.8794C185.909 45.8989 185.708 45.7286 185.689 45.5043C185.67 45.2799 185.841 45.0788 186.075 45.0593C186.31 45.0399 186.511 45.2101 186.53 45.4345Z" stroke="white" stroke-opacity="0.62" stroke-width="0.232894"/>
</g>
<g filter="url(#filter43_df)">
<path d="M177.209 74.7551C177.308 75.9511 176.708 76.9772 175.867 77.0469C175.027 77.1167 174.265 76.2037 174.166 75.0076C174.067 73.8116 174.667 72.7855 175.508 72.7157C176.348 72.646 177.11 73.559 177.209 74.7551Z" fill="#0075FF"/>
<path d="M177.093 74.7647C177.141 75.3417 177.019 75.8728 176.79 76.2645C176.56 76.6566 176.23 76.9 175.858 76.9309C175.486 76.9618 175.119 76.7762 174.828 76.4274C174.537 76.0788 174.33 75.575 174.282 74.998C174.234 74.421 174.356 73.8899 174.585 73.4982C174.815 73.1061 175.145 72.8627 175.517 72.8318C175.889 72.8009 176.256 72.9865 176.547 73.3353C176.838 73.6839 177.045 74.1877 177.093 74.7647Z" stroke="white" stroke-opacity="0.62" stroke-width="0.232894"/>
</g>
<g filter="url(#filter44_df)">
<path d="M176.439 75.074C176.463 75.3645 176.242 75.62 175.946 75.6446C175.65 75.6692 175.39 75.4536 175.366 75.1631C175.342 74.8725 175.562 74.617 175.859 74.5924C176.155 74.5678 176.415 74.7834 176.439 75.074Z" fill="white"/>
<path d="M176.323 75.0836C176.342 75.308 176.171 75.5091 175.936 75.5286C175.702 75.548 175.501 75.3778 175.482 75.1534C175.463 74.9291 175.634 74.7279 175.868 74.7085C176.103 74.689 176.304 74.8593 176.323 75.0836Z" stroke="white" stroke-opacity="0.62" stroke-width="0.232894"/>
</g>
<g filter="url(#filter45_df)">
<path d="M165.548 78.1573C165.647 79.3533 165.046 80.3794 164.206 80.4492C163.366 80.5189 162.604 79.6059 162.505 78.4099C162.406 77.2138 163.006 76.1877 163.847 76.118C164.687 76.0482 165.449 76.9613 165.548 78.1573Z" fill="#0075FF"/>
<path d="M165.432 78.1669C165.48 78.7439 165.358 79.275 165.129 79.6667C164.899 80.0588 164.569 80.3022 164.197 80.3331C163.824 80.364 163.458 80.1784 163.167 79.8296C162.876 79.4811 162.669 78.9773 162.621 78.4002C162.573 77.8232 162.695 77.2921 162.924 76.9004C163.153 76.5083 163.484 76.2649 163.856 76.234C164.228 76.2031 164.595 76.3887 164.886 76.7376C165.176 77.0861 165.384 77.5899 165.432 78.1669Z" stroke="white" stroke-opacity="0.62" stroke-width="0.232894"/>
</g>
<g filter="url(#filter46_df)">
<path d="M164.773 78.4766C164.797 78.7671 164.576 79.0226 164.28 79.0472C163.984 79.0718 163.724 78.8562 163.7 78.5656C163.676 78.2751 163.896 78.0196 164.193 77.995C164.489 77.9704 164.749 78.186 164.773 78.4766Z" fill="white"/>
<path d="M164.657 78.4862C164.676 78.7105 164.505 78.9117 164.27 78.9312C164.036 78.9506 163.835 78.7803 163.816 78.556C163.797 78.3317 163.968 78.1305 164.202 78.1111C164.437 78.0916 164.638 78.2619 164.657 78.4862Z" stroke="white" stroke-opacity="0.62" stroke-width="0.232894"/>
</g>
<g filter="url(#filter47_df)">
<path d="M181.101 67.9502C181.2 69.1463 180.599 70.1724 179.759 70.2421C178.919 70.3119 178.157 69.3989 178.058 68.2028C177.958 67.0068 178.559 65.9807 179.399 65.9109C180.24 65.8412 181.001 66.7542 181.101 67.9502Z" fill="#0075FF"/>
<path d="M180.984 67.9599C181.032 68.5369 180.911 69.068 180.682 69.4597C180.452 69.8518 180.121 70.0952 179.749 70.1261C179.377 70.157 179.011 69.9714 178.72 69.6226C178.429 69.274 178.222 68.7702 178.174 68.1932C178.126 67.6162 178.247 67.0851 178.477 66.6934C178.706 66.3013 179.037 66.0579 179.409 66.027C179.781 65.9961 180.147 66.1817 180.438 66.5305C180.729 66.8791 180.937 67.3828 180.984 67.9599Z" stroke="white" stroke-opacity="0.62" stroke-width="0.232894"/>
</g>
<g filter="url(#filter48_df)">
<path d="M180.329 68.2694C180.353 68.56 180.132 68.8155 179.836 68.8401C179.539 68.8647 179.28 68.649 179.256 68.3585C179.231 68.0679 179.452 67.8125 179.748 67.7879C180.045 67.7633 180.304 67.9789 180.329 68.2694Z" fill="white"/>
<path d="M180.213 68.2791C180.231 68.5034 180.06 68.7046 179.826 68.724C179.592 68.7435 179.39 68.5732 179.372 68.3489C179.353 68.1245 179.524 67.9234 179.758 67.9039C179.992 67.8845 180.194 68.0547 180.213 68.2791Z" stroke="white" stroke-opacity="0.62" stroke-width="0.232894"/>
</g>
<path d="M45.389 85.3447L43.5537 62.0901C44.1655 59.0569 46.4901 52.9905 50.8948 52.9905C107.788 49.957 126.14 51.9791 138.07 59.0569V79.2783C127.792 85.7491 116.047 91.4111 105.953 91.4111L50.8948 89.3889C49.1659 89.3889 45.6443 88.5801 45.389 85.3447Z" fill="#071037"/>
<path d="M43.5537 61.6925L45.389 84.947C45.6443 88.1824 49.1659 88.9913 50.8948 88.9913L105.953 91.0134C113.294 91.0134 116.352 85.6211 116.964 82.9249V63.7146C116.964 55.6261 109.623 52.9299 105.953 52.5929H50.8948C46.4901 52.5929 44.1655 58.6593 43.5537 61.6925Z" fill="#8FFFFF" fill-opacity="0.46"/>
<path d="M185.786 47.9348C182.115 61.6853 151.833 61.0787 137.151 59.0565V79.2779C146.695 82.5133 175.386 71.1894 188.539 65.1229C192.209 60.2698 188.233 51.6421 185.786 47.9348Z" fill="#0C1743" fill-opacity="0.94"/>
<g filter="url(#filter49_f)">
<ellipse cx="58.5" cy="70" rx="32.5" ry="32" fill="#0478FF" fill-opacity="0.26"/>
</g>
<g filter="url(#filter50_f)">
<circle cx="128.5" cy="110.5" r="52.5" fill="#8FFFFF" fill-opacity="0.12"/>
</g>
<defs>
<filter id="filter0_f" x="71.0261" y="14.8309" width="120.863" height="111.142" filterUnits="userSpaceOnUse" color-interpolation-filters="sRGB">
<feFlood flood-opacity="0" result="BackgroundImageFix"/>
<feBlend mode="normal" in="SourceGraphic" in2="BackgroundImageFix" result="shape"/>
<feGaussianBlur stdDeviation="11.8673" result="effect1_foregroundBlur"/>
</filter>
<filter id="filter1_df" x="91.1957" y="-12.6986" width="97.535" height="99.3555" filterUnits="userSpaceOnUse" color-interpolation-filters="sRGB">
<feFlood flood-opacity="0" result="BackgroundImageFix"/>
<feColorMatrix in="SourceAlpha" type="matrix" values="0 0 0 0 0 0 0 0 0 0 0 0 0 0 0 0 0 0 127 0" result="hardAlpha"/>
<feOffset/>
<feGaussianBlur stdDeviation="23.2894"/>
<feComposite in2="hardAlpha" operator="out"/>
<feColorMatrix type="matrix" values="0 0 0 0 0.2 0 0 0 0 0 0 0 0 0 1 0 0 0 1 0"/>
<feBlend mode="normal" in2="BackgroundImageFix" result="effect1_dropShadow"/>
<feBlend mode="normal" in="SourceGraphic" in2="effect1_dropShadow" result="shape"/>
<feGaussianBlur stdDeviation="2.09604" result="effect2_foregroundBlur"/>
</filter>
<filter id="filter2_df" x="92.9193" y="-10.0147" width="94.6954" height="94.666" filterUnits="userSpaceOnUse" color-interpolation-filters="sRGB">
<feFlood flood-opacity="0" result="BackgroundImageFix"/>
<feColorMatrix in="SourceAlpha" type="matrix" values="0 0 0 0 0 0 0 0 0 0 0 0 0 0 0 0 0 0 127 0" result="hardAlpha"/>
<feOffset/>
<feGaussianBlur stdDeviation="23.2894"/>
<feComposite in2="hardAlpha" operator="out"/>
<feColorMatrix type="matrix" values="0 0 0 0 0.2 0 0 0 0 0 0 0 0 0 1 0 0 0 1 0"/>
<feBlend mode="normal" in2="BackgroundImageFix" result="effect1_dropShadow"/>
<feBlend mode="normal" in="SourceGraphic" in2="effect1_dropShadow" result="shape"/>
<feGaussianBlur stdDeviation="0.197789" result="effect2_foregroundBlur"/>
</filter>
<filter id="filter3_df" x="50.3676" y="-4.43564" width="97.535" height="99.3555" filterUnits="userSpaceOnUse" color-interpolation-filters="sRGB">
<feFlood flood-opacity="0" result="BackgroundImageFix"/>
<feColorMatrix in="SourceAlpha" type="matrix" values="0 0 0 0 0 0 0 0 0 0 0 0 0 0 0 0 0 0 127 0" result="hardAlpha"/>
<feOffset/>
<feGaussianBlur stdDeviation="23.2894"/>
<feComposite in2="hardAlpha" operator="out"/>
<feColorMatrix type="matrix" values="0 0 0 0 0.2 0 0 0 0 0 0 0 0 0 1 0 0 0 1 0"/>
<feBlend mode="normal" in2="BackgroundImageFix" result="effect1_dropShadow"/>
<feBlend mode="normal" in="SourceGraphic" in2="effect1_dropShadow" result="shape"/>
<feGaussianBlur stdDeviation="2.09604" result="effect2_foregroundBlur"/>
</filter>
<filter id="filter4_df" x="52.0883" y="-1.75168" width="94.6954" height="94.666" filterUnits="userSpaceOnUse" color-interpolation-filters="sRGB">
<feFlood flood-opacity="0" result="BackgroundImageFix"/>
<feColorMatrix in="SourceAlpha" type="matrix" values="0 0 0 0 0 0 0 0 0 0 0 0 0 0 0 0 0 0 127 0" result="hardAlpha"/>
<feOffset/>
<feGaussianBlur stdDeviation="23.2894"/>
<feComposite in2="hardAlpha" operator="out"/>
<feColorMatrix type="matrix" values="0 0 0 0 0.2 0 0 0 0 0 0 0 0 0 1 0 0 0 1 0"/>
<feBlend mode="normal" in2="BackgroundImageFix" result="effect1_dropShadow"/>
<feBlend mode="normal" in="SourceGraphic" in2="effect1_dropShadow" result="shape"/>
<feGaussianBlur stdDeviation="0.197789" result="effect2_foregroundBlur"/>
</filter>
<filter id="filter5_df" x="58.1459" y="39.3092" width="97.535" height="99.3555" filterUnits="userSpaceOnUse" color-interpolation-filters="sRGB">
<feFlood flood-opacity="0" result="BackgroundImageFix"/>
<feColorMatrix in="SourceAlpha" type="matrix" values="0 0 0 0 0 0 0 0 0 0 0 0 0 0 0 0 0 0 127 0" result="hardAlpha"/>
<feOffset/>
<feGaussianBlur stdDeviation="23.2894"/>
<feComposite in2="hardAlpha" operator="out"/>
<feColorMatrix type="matrix" values="0 0 0 0 0.2 0 0 0 0 0 0 0 0 0 1 0 0 0 1 0"/>
<feBlend mode="normal" in2="BackgroundImageFix" result="effect1_dropShadow"/>
<feBlend mode="normal" in="SourceGraphic" in2="effect1_dropShadow" result="shape"/>
<feGaussianBlur stdDeviation="2.09604" result="effect2_foregroundBlur"/>
</filter>
<filter id="filter6_df" x="59.8695" y="41.993" width="94.6954" height="94.666" filterUnits="userSpaceOnUse" color-interpolation-filters="sRGB">
<feFlood flood-opacity="0" result="BackgroundImageFix"/>
<feColorMatrix in="SourceAlpha" type="matrix" values="0 0 0 0 0 0 0 0 0 0 0 0 0 0 0 0 0 0 127 0" result="hardAlpha"/>
<feOffset/>
<feGaussianBlur stdDeviation="23.2894"/>
<feComposite in2="hardAlpha" operator="out"/>
<feColorMatrix type="matrix" values="0 0 0 0 0.2 0 0 0 0 0 0 0 0 0 1 0 0 0 1 0"/>
<feBlend mode="normal" in2="BackgroundImageFix" result="effect1_dropShadow"/>
<feBlend mode="normal" in="SourceGraphic" in2="effect1_dropShadow" result="shape"/>
<feGaussianBlur stdDeviation="0.197789" result="effect2_foregroundBlur"/>
</filter>
<filter id="filter7_df" x="79.0434" y="46.6" width="97.535" height="99.3555" filterUnits="userSpaceOnUse" color-interpolation-filters="sRGB">
<feFlood flood-opacity="0" result="BackgroundImageFix"/>
<feColorMatrix in="SourceAlpha" type="matrix" values="0 0 0 0 0 0 0 0 0 0 0 0 0 0 0 0 0 0 127 0" result="hardAlpha"/>
<feOffset/>
<feGaussianBlur stdDeviation="23.2894"/>
<feComposite in2="hardAlpha" operator="out"/>
<feColorMatrix type="matrix" values="0 0 0 0 0.2 0 0 0 0 0 0 0 0 0 1 0 0 0 1 0"/>
<feBlend mode="normal" in2="BackgroundImageFix" result="effect1_dropShadow"/>
<feBlend mode="normal" in="SourceGraphic" in2="effect1_dropShadow" result="shape"/>
<feGaussianBlur stdDeviation="2.09604" result="effect2_foregroundBlur"/>
</filter>
<filter id="filter8_df" x="80.767" y="49.284" width="94.6954" height="94.666" filterUnits="userSpaceOnUse" color-interpolation-filters="sRGB">
<feFlood flood-opacity="0" result="BackgroundImageFix"/>
<feColorMatrix in="SourceAlpha" type="matrix" values="0 0 0 0 0 0 0 0 0 0 0 0 0 0 0 0 0 0 127 0" result="hardAlpha"/>
<feOffset/>
<feGaussianBlur stdDeviation="23.2894"/>
<feComposite in2="hardAlpha" operator="out"/>
<feColorMatrix type="matrix" values="0 0 0 0 0.2 0 0 0 0 0 0 0 0 0 1 0 0 0 1 0"/>
<feBlend mode="normal" in2="BackgroundImageFix" result="effect1_dropShadow"/>
<feBlend mode="normal" in="SourceGraphic" in2="effect1_dropShadow" result="shape"/>
<feGaussianBlur stdDeviation="0.197789" result="effect2_foregroundBlur"/>
</filter>
<filter id="filter9_df" x="6.13614" y="9.65994" width="97.535" height="99.3555" filterUnits="userSpaceOnUse" color-interpolation-filters="sRGB">
<feFlood flood-opacity="0" result="BackgroundImageFix"/>
<feColorMatrix in="SourceAlpha" type="matrix" values="0 0 0 0 0 0 0 0 0 0 0 0 0 0 0 0 0 0 127 0" result="hardAlpha"/>
<feOffset/>
<feGaussianBlur stdDeviation="23.2894"/>
<feComposite in2="hardAlpha" operator="out"/>
<feColorMatrix type="matrix" values="0 0 0 0 0.2 0 0 0 0 0 0 0 0 0 1 0 0 0 1 0"/>
<feBlend mode="normal" in2="BackgroundImageFix" result="effect1_dropShadow"/>
<feBlend mode="normal" in="SourceGraphic" in2="effect1_dropShadow" result="shape"/>
<feGaussianBlur stdDeviation="2.09604" result="effect2_foregroundBlur"/>
</filter>
<filter id="filter10_df" x="7.85977" y="12.3437" width="94.6954" height="94.666" filterUnits="userSpaceOnUse" color-interpolation-filters="sRGB">
<feFlood flood-opacity="0" result="BackgroundImageFix"/>
<feColorMatrix in="SourceAlpha" type="matrix" values="0 0 0 0 0 0 0 0 0 0 0 0 0 0 0 0 0 0 127 0" result="hardAlpha"/>
<feOffset/>
<feGaussianBlur stdDeviation="23.2894"/>
<feComposite in2="hardAlpha" operator="out"/>
<feColorMatrix type="matrix" values="0 0 0 0 0.2 0 0 0 0 0 0 0 0 0 1 0 0 0 1 0"/>
<feBlend mode="normal" in2="BackgroundImageFix" result="effect1_dropShadow"/>
<feBlend mode="normal" in="SourceGraphic" in2="effect1_dropShadow" result="shape"/>
<feGaussianBlur stdDeviation="0.197789" result="effect2_foregroundBlur"/>
</filter>
<filter id="filter11_df" x="38.2172" y="14.5203" width="97.535" height="99.3555" filterUnits="userSpaceOnUse" color-interpolation-filters="sRGB">
<feFlood flood-opacity="0" result="BackgroundImageFix"/>
<feColorMatrix in="SourceAlpha" type="matrix" values="0 0 0 0 0 0 0 0 0 0 0 0 0 0 0 0 0 0 127 0" result="hardAlpha"/>
<feOffset/>
<feGaussianBlur stdDeviation="23.2894"/>
<feComposite in2="hardAlpha" operator="out"/>
<feColorMatrix type="matrix" values="0 0 0 0 0.2 0 0 0 0 0 0 0 0 0 1 0 0 0 1 0"/>
<feBlend mode="normal" in2="BackgroundImageFix" result="effect1_dropShadow"/>
<feBlend mode="normal" in="SourceGraphic" in2="effect1_dropShadow" result="shape"/>
<feGaussianBlur stdDeviation="2.09604" result="effect2_foregroundBlur"/>
</filter>
<filter id="filter12_df" x="39.9379" y="17.2044" width="94.6954" height="94.666" filterUnits="userSpaceOnUse" color-interpolation-filters="sRGB">
<feFlood flood-opacity="0" result="BackgroundImageFix"/>
<feColorMatrix in="SourceAlpha" type="matrix" values="0 0 0 0 0 0 0 0 0 0 0 0 0 0 0 0 0 0 127 0" result="hardAlpha"/>
<feOffset/>
<feGaussianBlur stdDeviation="23.2894"/>
<feComposite in2="hardAlpha" operator="out"/>
<feColorMatrix type="matrix" values="0 0 0 0 0.2 0 0 0 0 0 0 0 0 0 1 0 0 0 1 0"/>
<feBlend mode="normal" in2="BackgroundImageFix" result="effect1_dropShadow"/>
<feBlend mode="normal" in="SourceGraphic" in2="effect1_dropShadow" result="shape"/>
<feGaussianBlur stdDeviation="0.197789" result="effect2_foregroundBlur"/>
</filter>
<filter id="filter13_df" x="31.4106" y="27.644" width="97.535" height="99.3555" filterUnits="userSpaceOnUse" color-interpolation-filters="sRGB">
<feFlood flood-opacity="0" result="BackgroundImageFix"/>
<feColorMatrix in="SourceAlpha" type="matrix" values="0 0 0 0 0 0 0 0 0 0 0 0 0 0 0 0 0 0 127 0" result="hardAlpha"/>
<feOffset/>
<feGaussianBlur stdDeviation="23.2894"/>
<feComposite in2="hardAlpha" operator="out"/>
<feColorMatrix type="matrix" values="0 0 0 0 0.2 0 0 0 0 0 0 0 0 0 1 0 0 0 1 0"/>
<feBlend mode="normal" in2="BackgroundImageFix" result="effect1_dropShadow"/>
<feBlend mode="normal" in="SourceGraphic" in2="effect1_dropShadow" result="shape"/>
<feGaussianBlur stdDeviation="2.09604" result="effect2_foregroundBlur"/>
</filter>
<filter id="filter14_df" x="33.1342" y="30.3279" width="94.6954" height="94.666" filterUnits="userSpaceOnUse" color-interpolation-filters="sRGB">
<feFlood flood-opacity="0" result="BackgroundImageFix"/>
<feColorMatrix in="SourceAlpha" type="matrix" values="0 0 0 0 0 0 0 0 0 0 0 0 0 0 0 0 0 0 127 0" result="hardAlpha"/>
<feOffset/>
<feGaussianBlur stdDeviation="23.2894"/>
<feComposite in2="hardAlpha" operator="out"/>
<feColorMatrix type="matrix" values="0 0 0 0 0.2 0 0 0 0 0 0 0 0 0 1 0 0 0 1 0"/>
<feBlend mode="normal" in2="BackgroundImageFix" result="effect1_dropShadow"/>
<feBlend mode="normal" in="SourceGraphic" in2="effect1_dropShadow" result="shape"/>
<feGaussianBlur stdDeviation="0.197789" result="effect2_foregroundBlur"/>
</filter>
<filter id="filter15_df" x="55.2299" y="21.3253" width="97.535" height="99.3555" filterUnits="userSpaceOnUse" color-interpolation-filters="sRGB">
<feFlood flood-opacity="0" result="BackgroundImageFix"/>
<feColorMatrix in="SourceAlpha" type="matrix" values="0 0 0 0 0 0 0 0 0 0 0 0 0 0 0 0 0 0 127 0" result="hardAlpha"/>
<feOffset/>
<feGaussianBlur stdDeviation="23.2894"/>
<feComposite in2="hardAlpha" operator="out"/>
<feColorMatrix type="matrix" values="0 0 0 0 0.2 0 0 0 0 0 0 0 0 0 1 0 0 0 1 0"/>
<feBlend mode="normal" in2="BackgroundImageFix" result="effect1_dropShadow"/>
<feBlend mode="normal" in="SourceGraphic" in2="effect1_dropShadow" result="shape"/>
<feGaussianBlur stdDeviation="2.09604" result="effect2_foregroundBlur"/>
</filter>
<filter id="filter16_df" x="56.9506" y="24.0091" width="94.6954" height="94.666" filterUnits="userSpaceOnUse" color-interpolation-filters="sRGB">
<feFlood flood-opacity="0" result="BackgroundImageFix"/>
<feColorMatrix in="SourceAlpha" type="matrix" values="0 0 0 0 0 0 0 0 0 0 0 0 0 0 0 0 0 0 127 0" result="hardAlpha"/>
<feOffset/>
<feGaussianBlur stdDeviation="23.2894"/>
<feComposite in2="hardAlpha" operator="out"/>
<feColorMatrix type="matrix" values="0 0 0 0 0.2 0 0 0 0 0 0 0 0 0 1 0 0 0 1 0"/>
<feBlend mode="normal" in2="BackgroundImageFix" result="effect1_dropShadow"/>
<feBlend mode="normal" in="SourceGraphic" in2="effect1_dropShadow" result="shape"/>
<feGaussianBlur stdDeviation="0.197789" result="effect2_foregroundBlur"/>
</filter>
<filter id="filter17_df" x="110.641" y="21.3253" width="97.535" height="99.3555" filterUnits="userSpaceOnUse" color-interpolation-filters="sRGB">
<feFlood flood-opacity="0" result="BackgroundImageFix"/>
<feColorMatrix in="SourceAlpha" type="matrix" values="0 0 0 0 0 0 0 0 0 0 0 0 0 0 0 0 0 0 127 0" result="hardAlpha"/>
<feOffset/>
<feGaussianBlur stdDeviation="23.2894"/>
<feComposite in2="hardAlpha" operator="out"/>
<feColorMatrix type="matrix" values="0 0 0 0 0.2 0 0 0 0 0 0 0 0 0 1 0 0 0 1 0"/>
<feBlend mode="normal" in2="BackgroundImageFix" result="effect1_dropShadow"/>
<feBlend mode="normal" in="SourceGraphic" in2="effect1_dropShadow" result="shape"/>
<feGaussianBlur stdDeviation="2.09604" result="effect2_foregroundBlur"/>
</filter>
<filter id="filter18_df" x="112.36" y="24.0091" width="94.6954" height="94.666" filterUnits="userSpaceOnUse" color-interpolation-filters="sRGB">
<feFlood flood-opacity="0" result="BackgroundImageFix"/>
<feColorMatrix in="SourceAlpha" type="matrix" values="0 0 0 0 0 0 0 0 0 0 0 0 0 0 0 0 0 0 127 0" result="hardAlpha"/>
<feOffset/>
<feGaussianBlur stdDeviation="23.2894"/>
<feComposite in2="hardAlpha" operator="out"/>
<feColorMatrix type="matrix" values="0 0 0 0 0.2 0 0 0 0 0 0 0 0 0 1 0 0 0 1 0"/>
<feBlend mode="normal" in2="BackgroundImageFix" result="effect1_dropShadow"/>
<feBlend mode="normal" in="SourceGraphic" in2="effect1_dropShadow" result="shape"/>
<feGaussianBlur stdDeviation="0.197789" result="effect2_foregroundBlur"/>
</filter>
<filter id="filter19_df" x="60.0893" y="-40.4037" width="97.535" height="99.3555" filterUnits="userSpaceOnUse" color-interpolation-filters="sRGB">
<feFlood flood-opacity="0" result="BackgroundImageFix"/>
<feColorMatrix in="SourceAlpha" type="matrix" values="0 0 0 0 0 0 0 0 0 0 0 0 0 0 0 0 0 0 127 0" result="hardAlpha"/>
<feOffset/>
<feGaussianBlur stdDeviation="23.2894"/>
<feComposite in2="hardAlpha" operator="out"/>
<feColorMatrix type="matrix" values="0 0 0 0 0.2 0 0 0 0 0 0 0 0 0 1 0 0 0 1 0"/>
<feBlend mode="normal" in2="BackgroundImageFix" result="effect1_dropShadow"/>
<feBlend mode="normal" in="SourceGraphic" in2="effect1_dropShadow" result="shape"/>
<feGaussianBlur stdDeviation="2.09604" result="effect2_foregroundBlur"/>
</filter>
<filter id="filter20_df" x="61.8109" y="-37.7199" width="94.6954" height="94.666" filterUnits="userSpaceOnUse" color-interpolation-filters="sRGB">
<feFlood flood-opacity="0" result="BackgroundImageFix"/>
<feColorMatrix in="SourceAlpha" type="matrix" values="0 0 0 0 0 0 0 0 0 0 0 0 0 0 0 0 0 0 127 0" result="hardAlpha"/>
<feOffset/>
<feGaussianBlur stdDeviation="23.2894"/>
<feComposite in2="hardAlpha" operator="out"/>
<feColorMatrix type="matrix" values="0 0 0 0 0.2 0 0 0 0 0 0 0 0 0 1 0 0 0 1 0"/>
<feBlend mode="normal" in2="BackgroundImageFix" result="effect1_dropShadow"/>
<feBlend mode="normal" in="SourceGraphic" in2="effect1_dropShadow" result="shape"/>
<feGaussianBlur stdDeviation="0.197789" result="effect2_foregroundBlur"/>
</filter>
<filter id="filter21_df" x="103.832" y="52.9186" width="97.535" height="99.3555" filterUnits="userSpaceOnUse" color-interpolation-filters="sRGB">
<feFlood flood-opacity="0" result="BackgroundImageFix"/>
<feColorMatrix in="SourceAlpha" type="matrix" values="0 0 0 0 0 0 0 0 0 0 0 0 0 0 0 0 0 0 127 0" result="hardAlpha"/>
<feOffset/>
<feGaussianBlur stdDeviation="23.2894"/>
<feComposite in2="hardAlpha" operator="out"/>
<feColorMatrix type="matrix" values="0 0 0 0 0.2 0 0 0 0 0 0 0 0 0 1 0 0 0 1 0"/>
<feBlend mode="normal" in2="BackgroundImageFix" result="effect1_dropShadow"/>
<feBlend mode="normal" in="SourceGraphic" in2="effect1_dropShadow" result="shape"/>
<feGaussianBlur stdDeviation="2.09604" result="effect2_foregroundBlur"/>
</filter>
<filter id="filter22_df" x="105.558" y="55.6026" width="94.6954" height="94.666" filterUnits="userSpaceOnUse" color-interpolation-filters="sRGB">
<feFlood flood-opacity="0" result="BackgroundImageFix"/>
<feColorMatrix in="SourceAlpha" type="matrix" values="0 0 0 0 0 0 0 0 0 0 0 0 0 0 0 0 0 0 127 0" result="hardAlpha"/>
<feOffset/>
<feGaussianBlur stdDeviation="23.2894"/>
<feComposite in2="hardAlpha" operator="out"/>
<feColorMatrix type="matrix" values="0 0 0 0 0.2 0 0 0 0 0 0 0 0 0 1 0 0 0 1 0"/>
<feBlend mode="normal" in2="BackgroundImageFix" result="effect1_dropShadow"/>
<feBlend mode="normal" in="SourceGraphic" in2="effect1_dropShadow" result="shape"/>
<feGaussianBlur stdDeviation="0.197789" result="effect2_foregroundBlur"/>
</filter>
<filter id="filter23_df" x="107.724" y="71.8749" width="97.535" height="99.3555" filterUnits="userSpaceOnUse" color-interpolation-filters="sRGB">
<feFlood flood-opacity="0" result="BackgroundImageFix"/>
<feColorMatrix in="SourceAlpha" type="matrix" values="0 0 0 0 0 0 0 0 0 0 0 0 0 0 0 0 0 0 127 0" result="hardAlpha"/>
<feOffset/>
<feGaussianBlur stdDeviation="23.2894"/>
<feComposite in2="hardAlpha" operator="out"/>
<feColorMatrix type="matrix" values="0 0 0 0 0.2 0 0 0 0 0 0 0 0 0 1 0 0 0 1 0"/>
<feBlend mode="normal" in2="BackgroundImageFix" result="effect1_dropShadow"/>
<feBlend mode="normal" in="SourceGraphic" in2="effect1_dropShadow" result="shape"/>
<feGaussianBlur stdDeviation="2.09604" result="effect2_foregroundBlur"/>
</filter>
<filter id="filter24_df" x="109.446" y="74.5586" width="94.6954" height="94.666" filterUnits="userSpaceOnUse" color-interpolation-filters="sRGB">
<feFlood flood-opacity="0" result="BackgroundImageFix"/>
<feColorMatrix in="SourceAlpha" type="matrix" values="0 0 0 0 0 0 0 0 0 0 0 0 0 0 0 0 0 0 127 0" result="hardAlpha"/>
<feOffset/>
<feGaussianBlur stdDeviation="23.2894"/>
<feComposite in2="hardAlpha" operator="out"/>
<feColorMatrix type="matrix" values="0 0 0 0 0.2 0 0 0 0 0 0 0 0 0 1 0 0 0 1 0"/>
<feBlend mode="normal" in2="BackgroundImageFix" result="effect1_dropShadow"/>
<feBlend mode="normal" in="SourceGraphic" in2="effect1_dropShadow" result="shape"/>
<feGaussianBlur stdDeviation="0.197789" result="effect2_foregroundBlur"/>
</filter>
<filter id="filter25_df" x="121.818" y="66.5284" width="97.535" height="99.3555" filterUnits="userSpaceOnUse" color-interpolation-filters="sRGB">
<feFlood flood-opacity="0" result="BackgroundImageFix"/>
<feColorMatrix in="SourceAlpha" type="matrix" values="0 0 0 0 0 0 0 0 0 0 0 0 0 0 0 0 0 0 127 0" result="hardAlpha"/>
<feOffset/>
<feGaussianBlur stdDeviation="23.2894"/>
<feComposite in2="hardAlpha" operator="out"/>
<feColorMatrix type="matrix" values="0 0 0 0 0.2 0 0 0 0 0 0 0 0 0 1 0 0 0 1 0"/>
<feBlend mode="normal" in2="BackgroundImageFix" result="effect1_dropShadow"/>
<feBlend mode="normal" in="SourceGraphic" in2="effect1_dropShadow" result="shape"/>
<feGaussianBlur stdDeviation="2.09604" result="effect2_foregroundBlur"/>
</filter>
<filter id="filter26_df" x="123.541" y="69.2121" width="94.6954" height="94.666" filterUnits="userSpaceOnUse" color-interpolation-filters="sRGB">
<feFlood flood-opacity="0" result="BackgroundImageFix"/>
<feColorMatrix in="SourceAlpha" type="matrix" values="0 0 0 0 0 0 0 0 0 0 0 0 0 0 0 0 0 0 127 0" result="hardAlpha"/>
<feOffset/>
<feGaussianBlur stdDeviation="23.2894"/>
<feComposite in2="hardAlpha" operator="out"/>
<feColorMatrix type="matrix" values="0 0 0 0 0.2 0 0 0 0 0 0 0 0 0 1 0 0 0 1 0"/>
<feBlend mode="normal" in2="BackgroundImageFix" result="effect1_dropShadow"/>
<feBlend mode="normal" in="SourceGraphic" in2="effect1_dropShadow" result="shape"/>
<feGaussianBlur stdDeviation="0.197789" result="effect2_foregroundBlur"/>
</filter>
<filter id="filter27_df" x="52.3119" y="69.9307" width="97.535" height="99.3555" filterUnits="userSpaceOnUse" color-interpolation-filters="sRGB">
<feFlood flood-opacity="0" result="BackgroundImageFix"/>
<feColorMatrix in="SourceAlpha" type="matrix" values="0 0 0 0 0 0 0 0 0 0 0 0 0 0 0 0 0 0 127 0" result="hardAlpha"/>
<feOffset/>
<feGaussianBlur stdDeviation="23.2894"/>
<feComposite in2="hardAlpha" operator="out"/>
<feColorMatrix type="matrix" values="0 0 0 0 0.2 0 0 0 0 0 0 0 0 0 1 0 0 0 1 0"/>
<feBlend mode="normal" in2="BackgroundImageFix" result="effect1_dropShadow"/>
<feBlend mode="normal" in="SourceGraphic" in2="effect1_dropShadow" result="shape"/>
<feGaussianBlur stdDeviation="2.09604" result="effect2_foregroundBlur"/>
</filter>
<filter id="filter28_df" x="54.0356" y="72.6145" width="94.6954" height="94.666" filterUnits="userSpaceOnUse" color-interpolation-filters="sRGB">
<feFlood flood-opacity="0" result="BackgroundImageFix"/>
<feColorMatrix in="SourceAlpha" type="matrix" values="0 0 0 0 0 0 0 0 0 0 0 0 0 0 0 0 0 0 127 0" result="hardAlpha"/>
<feOffset/>
<feGaussianBlur stdDeviation="23.2894"/>
<feComposite in2="hardAlpha" operator="out"/>
<feColorMatrix type="matrix" values="0 0 0 0 0.2 0 0 0 0 0 0 0 0 0 1 0 0 0 1 0"/>
<feBlend mode="normal" in2="BackgroundImageFix" result="effect1_dropShadow"/>
<feBlend mode="normal" in="SourceGraphic" in2="effect1_dropShadow" result="shape"/>
<feGaussianBlur stdDeviation="0.197789" result="effect2_foregroundBlur"/>
</filter>
<filter id="filter29_df" x="79.0434" y="85.4844" width="97.535" height="99.3555" filterUnits="userSpaceOnUse" color-interpolation-filters="sRGB">
<feFlood flood-opacity="0" result="BackgroundImageFix"/>
<feColorMatrix in="SourceAlpha" type="matrix" values="0 0 0 0 0 0 0 0 0 0 0 0 0 0 0 0 0 0 127 0" result="hardAlpha"/>
<feOffset/>
<feGaussianBlur stdDeviation="23.2894"/>
<feComposite in2="hardAlpha" operator="out"/>
<feColorMatrix type="matrix" values="0 0 0 0 0.2 0 0 0 0 0 0 0 0 0 1 0 0 0 1 0"/>
<feBlend mode="normal" in2="BackgroundImageFix" result="effect1_dropShadow"/>
<feBlend mode="normal" in="SourceGraphic" in2="effect1_dropShadow" result="shape"/>
<feGaussianBlur stdDeviation="2.09604" result="effect2_foregroundBlur"/>
</filter>
<filter id="filter30_df" x="80.767" y="88.1681" width="94.6954" height="94.666" filterUnits="userSpaceOnUse" color-interpolation-filters="sRGB">
<feFlood flood-opacity="0" result="BackgroundImageFix"/>
<feColorMatrix in="SourceAlpha" type="matrix" values="0 0 0 0 0 0 0 0 0 0 0 0 0 0 0 0 0 0 127 0" result="hardAlpha"/>
<feOffset/>
<feGaussianBlur stdDeviation="23.2894"/>
<feComposite in2="hardAlpha" operator="out"/>
<feColorMatrix type="matrix" values="0 0 0 0 0.2 0 0 0 0 0 0 0 0 0 1 0 0 0 1 0"/>
<feBlend mode="normal" in2="BackgroundImageFix" result="effect1_dropShadow"/>
<feBlend mode="normal" in="SourceGraphic" in2="effect1_dropShadow" result="shape"/>
<feGaussianBlur stdDeviation="0.197789" result="effect2_foregroundBlur"/>
</filter>
<filter id="filter31_df" x="141.651" y="26.602" width="95.784" height="96.8763" filterUnits="userSpaceOnUse" color-interpolation-filters="sRGB">
<feFlood flood-opacity="0" result="BackgroundImageFix"/>
<feColorMatrix in="SourceAlpha" type="matrix" values="0 0 0 0 0 0 0 0 0 0 0 0 0 0 0 0 0 0 127 0" result="hardAlpha"/>
<feOffset/>
<feGaussianBlur stdDeviation="23.2894"/>
<feComposite in2="hardAlpha" operator="out"/>
<feColorMatrix type="matrix" values="0 0 0 0 0.2 0 0 0 0 0 0 0 0 0 1 0 0 0 1 0"/>
<feBlend mode="normal" in2="BackgroundImageFix" result="effect1_dropShadow"/>
<feBlend mode="normal" in="SourceGraphic" in2="effect1_dropShadow" result="shape"/>
<feGaussianBlur stdDeviation="2.09604" result="effect2_foregroundBlur"/>
</filter>
<filter id="filter32_df" x="142.684" y="28.2119" width="94.0802" height="94.0626" filterUnits="userSpaceOnUse" color-interpolation-filters="sRGB">
<feFlood flood-opacity="0" result="BackgroundImageFix"/>
<feColorMatrix in="SourceAlpha" type="matrix" values="0 0 0 0 0 0 0 0 0 0 0 0 0 0 0 0 0 0 127 0" result="hardAlpha"/>
<feOffset/>
<feGaussianBlur stdDeviation="23.2894"/>
<feComposite in2="hardAlpha" operator="out"/>
<feColorMatrix type="matrix" values="0 0 0 0 0.2 0 0 0 0 0 0 0 0 0 1 0 0 0 1 0"/>
<feBlend mode="normal" in2="BackgroundImageFix" result="effect1_dropShadow"/>
<feBlend mode="normal" in="SourceGraphic" in2="effect1_dropShadow" result="shape"/>
<feGaussianBlur stdDeviation="0.197789" result="effect2_foregroundBlur"/>
</filter>
<filter id="filter33_df" x="55.6186" y="22.2273" width="95.784" height="96.8763" filterUnits="userSpaceOnUse" color-interpolation-filters="sRGB">
<feFlood flood-opacity="0" result="BackgroundImageFix"/>
<feColorMatrix in="SourceAlpha" type="matrix" values="0 0 0 0 0 0 0 0 0 0 0 0 0 0 0 0 0 0 127 0" result="hardAlpha"/>
<feOffset/>
<feGaussianBlur stdDeviation="23.2894"/>
<feComposite in2="hardAlpha" operator="out"/>
<feColorMatrix type="matrix" values="0 0 0 0 0.2 0 0 0 0 0 0 0 0 0 1 0 0 0 1 0"/>
<feBlend mode="normal" in2="BackgroundImageFix" result="effect1_dropShadow"/>
<feBlend mode="normal" in="SourceGraphic" in2="effect1_dropShadow" result="shape"/>
<feGaussianBlur stdDeviation="2.09604" result="effect2_foregroundBlur"/>
</filter>
<filter id="filter34_df" x="56.6518" y="23.8378" width="94.0802" height="94.0626" filterUnits="userSpaceOnUse" color-interpolation-filters="sRGB">
<feFlood flood-opacity="0" result="BackgroundImageFix"/>
<feColorMatrix in="SourceAlpha" type="matrix" values="0 0 0 0 0 0 0 0 0 0 0 0 0 0 0 0 0 0 127 0" result="hardAlpha"/>
<feOffset/>
<feGaussianBlur stdDeviation="23.2894"/>
<feComposite in2="hardAlpha" operator="out"/>
<feColorMatrix type="matrix" values="0 0 0 0 0.2 0 0 0 0 0 0 0 0 0 1 0 0 0 1 0"/>
<feBlend mode="normal" in2="BackgroundImageFix" result="effect1_dropShadow"/>
<feBlend mode="normal" in="SourceGraphic" in2="effect1_dropShadow" result="shape"/>
<feGaussianBlur stdDeviation="0.197789" result="effect2_foregroundBlur"/>
</filter>
<filter id="filter35_df" x="124.638" y="-27.3502" width="95.784" height="96.8763" filterUnits="userSpaceOnUse" color-interpolation-filters="sRGB">
<feFlood flood-opacity="0" result="BackgroundImageFix"/>
<feColorMatrix in="SourceAlpha" type="matrix" values="0 0 0 0 0 0 0 0 0 0 0 0 0 0 0 0 0 0 127 0" result="hardAlpha"/>
<feOffset/>
<feGaussianBlur stdDeviation="23.2894"/>
<feComposite in2="hardAlpha" operator="out"/>
<feColorMatrix type="matrix" values="0 0 0 0 0.2 0 0 0 0 0 0 0 0 0 1 0 0 0 1 0"/>
<feBlend mode="normal" in2="BackgroundImageFix" result="effect1_dropShadow"/>
<feBlend mode="normal" in="SourceGraphic" in2="effect1_dropShadow" result="shape"/>
<feGaussianBlur stdDeviation="2.09604" result="effect2_foregroundBlur"/>
</filter>
<filter id="filter36_df" x="125.671" y="-25.74" width="94.0802" height="94.0626" filterUnits="userSpaceOnUse" color-interpolation-filters="sRGB">
<feFlood flood-opacity="0" result="BackgroundImageFix"/>
<feColorMatrix in="SourceAlpha" type="matrix" values="0 0 0 0 0 0 0 0 0 0 0 0 0 0 0 0 0 0 127 0" result="hardAlpha"/>
<feOffset/>
<feGaussianBlur stdDeviation="23.2894"/>
<feComposite in2="hardAlpha" operator="out"/>
<feColorMatrix type="matrix" values="0 0 0 0 0.2 0 0 0 0 0 0 0 0 0 1 0 0 0 1 0"/>
<feBlend mode="normal" in2="BackgroundImageFix" result="effect1_dropShadow"/>
<feBlend mode="normal" in="SourceGraphic" in2="effect1_dropShadow" result="shape"/>
<feGaussianBlur stdDeviation="0.197789" result="effect2_foregroundBlur"/>
</filter>
<filter id="filter37_df" x="110.079" y="-6.43234" width="96.2217" height="97.4961" filterUnits="userSpaceOnUse" color-interpolation-filters="sRGB">
<feFlood flood-opacity="0" result="BackgroundImageFix"/>
<feColorMatrix in="SourceAlpha" type="matrix" values="0 0 0 0 0 0 0 0 0 0 0 0 0 0 0 0 0 0 127 0" result="hardAlpha"/>
<feOffset/>
<feGaussianBlur stdDeviation="23.2894"/>
<feComposite in2="hardAlpha" operator="out"/>
<feColorMatrix type="matrix" values="0 0 0 0 0.2 0 0 0 0 0 0 0 0 0 1 0 0 0 1 0"/>
<feBlend mode="normal" in2="BackgroundImageFix" result="effect1_dropShadow"/>
<feBlend mode="normal" in="SourceGraphic" in2="effect1_dropShadow" result="shape"/>
<feGaussianBlur stdDeviation="2.09604" result="effect2_foregroundBlur"/>
</filter>
<filter id="filter38_df" x="111.288" y="-4.55368" width="94.234" height="94.2134" filterUnits="userSpaceOnUse" color-interpolation-filters="sRGB">
<feFlood flood-opacity="0" result="BackgroundImageFix"/>
<feColorMatrix in="SourceAlpha" type="matrix" values="0 0 0 0 0 0 0 0 0 0 0 0 0 0 0 0 0 0 127 0" result="hardAlpha"/>
<feOffset/>
<feGaussianBlur stdDeviation="23.2894"/>
<feComposite in2="hardAlpha" operator="out"/>
<feColorMatrix type="matrix" values="0 0 0 0 0.2 0 0 0 0 0 0 0 0 0 1 0 0 0 1 0"/>
<feBlend mode="normal" in2="BackgroundImageFix" result="effect1_dropShadow"/>
<feBlend mode="normal" in="SourceGraphic" in2="effect1_dropShadow" result="shape"/>
<feGaussianBlur stdDeviation="0.197789" result="effect2_foregroundBlur"/>
</filter>
<filter id="filter39_df" x="117.371" y="-17.1255" width="96.2217" height="97.4961" filterUnits="userSpaceOnUse" color-interpolation-filters="sRGB">
<feFlood flood-opacity="0" result="BackgroundImageFix"/>
<feColorMatrix in="SourceAlpha" type="matrix" values="0 0 0 0 0 0 0 0 0 0 0 0 0 0 0 0 0 0 127 0" result="hardAlpha"/>
<feOffset/>
<feGaussianBlur stdDeviation="23.2894"/>
<feComposite in2="hardAlpha" operator="out"/>
<feColorMatrix type="matrix" values="0 0 0 0 0.2 0 0 0 0 0 0 0 0 0 1 0 0 0 1 0"/>
<feBlend mode="normal" in2="BackgroundImageFix" result="effect1_dropShadow"/>
<feBlend mode="normal" in="SourceGraphic" in2="effect1_dropShadow" result="shape"/>
<feGaussianBlur stdDeviation="2.09604" result="effect2_foregroundBlur"/>
</filter>
<filter id="filter40_df" x="118.579" y="-15.2469" width="94.234" height="94.2134" filterUnits="userSpaceOnUse" color-interpolation-filters="sRGB">
<feFlood flood-opacity="0" result="BackgroundImageFix"/>
<feColorMatrix in="SourceAlpha" type="matrix" values="0 0 0 0 0 0 0 0 0 0 0 0 0 0 0 0 0 0 127 0" result="hardAlpha"/>
<feOffset/>
<feGaussianBlur stdDeviation="23.2894"/>
<feComposite in2="hardAlpha" operator="out"/>
<feColorMatrix type="matrix" values="0 0 0 0 0.2 0 0 0 0 0 0 0 0 0 1 0 0 0 1 0"/>
<feBlend mode="normal" in2="BackgroundImageFix" result="effect1_dropShadow"/>
<feBlend mode="normal" in="SourceGraphic" in2="effect1_dropShadow" result="shape"/>
<feGaussianBlur stdDeviation="0.197789" result="effect2_foregroundBlur"/>
</filter>
<filter id="filter41_df" x="137.786" y="-3.51596" width="96.2217" height="97.4961" filterUnits="userSpaceOnUse" color-interpolation-filters="sRGB">
<feFlood flood-opacity="0" result="BackgroundImageFix"/>
<feColorMatrix in="SourceAlpha" type="matrix" values="0 0 0 0 0 0 0 0 0 0 0 0 0 0 0 0 0 0 127 0" result="hardAlpha"/>
<feOffset/>
<feGaussianBlur stdDeviation="23.2894"/>
<feComposite in2="hardAlpha" operator="out"/>
<feColorMatrix type="matrix" values="0 0 0 0 0.2 0 0 0 0 0 0 0 0 0 1 0 0 0 1 0"/>
<feBlend mode="normal" in2="BackgroundImageFix" result="effect1_dropShadow"/>
<feBlend mode="normal" in="SourceGraphic" in2="effect1_dropShadow" result="shape"/>
<feGaussianBlur stdDeviation="2.09604" result="effect2_foregroundBlur"/>
</filter>
<filter id="filter42_df" x="138.993" y="-1.6373" width="94.234" height="94.2134" filterUnits="userSpaceOnUse" color-interpolation-filters="sRGB">
<feFlood flood-opacity="0" result="BackgroundImageFix"/>
<feColorMatrix in="SourceAlpha" type="matrix" values="0 0 0 0 0 0 0 0 0 0 0 0 0 0 0 0 0 0 127 0" result="hardAlpha"/>
<feOffset/>
<feGaussianBlur stdDeviation="23.2894"/>
<feComposite in2="hardAlpha" operator="out"/>
<feColorMatrix type="matrix" values="0 0 0 0 0.2 0 0 0 0 0 0 0 0 0 1 0 0 0 1 0"/>
<feBlend mode="normal" in2="BackgroundImageFix" result="effect1_dropShadow"/>
<feBlend mode="normal" in="SourceGraphic" in2="effect1_dropShadow" result="shape"/>
<feGaussianBlur stdDeviation="0.197789" result="effect2_foregroundBlur"/>
</filter>
<filter id="filter43_df" x="127.577" y="26.1333" width="96.2217" height="97.4961" filterUnits="userSpaceOnUse" color-interpolation-filters="sRGB">
<feFlood flood-opacity="0" result="BackgroundImageFix"/>
<feColorMatrix in="SourceAlpha" type="matrix" values="0 0 0 0 0 0 0 0 0 0 0 0 0 0 0 0 0 0 127 0" result="hardAlpha"/>
<feOffset/>
<feGaussianBlur stdDeviation="23.2894"/>
<feComposite in2="hardAlpha" operator="out"/>
<feColorMatrix type="matrix" values="0 0 0 0 0.2 0 0 0 0 0 0 0 0 0 1 0 0 0 1 0"/>
<feBlend mode="normal" in2="BackgroundImageFix" result="effect1_dropShadow"/>
<feBlend mode="normal" in="SourceGraphic" in2="effect1_dropShadow" result="shape"/>
<feGaussianBlur stdDeviation="2.09604" result="effect2_foregroundBlur"/>
</filter>
<filter id="filter44_df" x="128.786" y="28.0119" width="94.234" height="94.2134" filterUnits="userSpaceOnUse" color-interpolation-filters="sRGB">
<feFlood flood-opacity="0" result="BackgroundImageFix"/>
<feColorMatrix in="SourceAlpha" type="matrix" values="0 0 0 0 0 0 0 0 0 0 0 0 0 0 0 0 0 0 127 0" result="hardAlpha"/>
<feOffset/>
<feGaussianBlur stdDeviation="23.2894"/>
<feComposite in2="hardAlpha" operator="out"/>
<feColorMatrix type="matrix" values="0 0 0 0 0.2 0 0 0 0 0 0 0 0 0 1 0 0 0 1 0"/>
<feBlend mode="normal" in2="BackgroundImageFix" result="effect1_dropShadow"/>
<feBlend mode="normal" in="SourceGraphic" in2="effect1_dropShadow" result="shape"/>
<feGaussianBlur stdDeviation="0.197789" result="effect2_foregroundBlur"/>
</filter>
<filter id="filter45_df" x="115.915" y="29.5356" width="96.2217" height="97.4961" filterUnits="userSpaceOnUse" color-interpolation-filters="sRGB">
<feFlood flood-opacity="0" result="BackgroundImageFix"/>
<feColorMatrix in="SourceAlpha" type="matrix" values="0 0 0 0 0 0 0 0 0 0 0 0 0 0 0 0 0 0 127 0" result="hardAlpha"/>
<feOffset/>
<feGaussianBlur stdDeviation="23.2894"/>
<feComposite in2="hardAlpha" operator="out"/>
<feColorMatrix type="matrix" values="0 0 0 0 0.2 0 0 0 0 0 0 0 0 0 1 0 0 0 1 0"/>
<feBlend mode="normal" in2="BackgroundImageFix" result="effect1_dropShadow"/>
<feBlend mode="normal" in="SourceGraphic" in2="effect1_dropShadow" result="shape"/>
<feGaussianBlur stdDeviation="2.09604" result="effect2_foregroundBlur"/>
</filter>
<filter id="filter46_df" x="117.12" y="31.4145" width="94.234" height="94.2134" filterUnits="userSpaceOnUse" color-interpolation-filters="sRGB">
<feFlood flood-opacity="0" result="BackgroundImageFix"/>
<feColorMatrix in="SourceAlpha" type="matrix" values="0 0 0 0 0 0 0 0 0 0 0 0 0 0 0 0 0 0 127 0" result="hardAlpha"/>
<feOffset/>
<feGaussianBlur stdDeviation="23.2894"/>
<feComposite in2="hardAlpha" operator="out"/>
<feColorMatrix type="matrix" values="0 0 0 0 0.2 0 0 0 0 0 0 0 0 0 1 0 0 0 1 0"/>
<feBlend mode="normal" in2="BackgroundImageFix" result="effect1_dropShadow"/>
<feBlend mode="normal" in="SourceGraphic" in2="effect1_dropShadow" result="shape"/>
<feGaussianBlur stdDeviation="0.197789" result="effect2_foregroundBlur"/>
</filter>
<filter id="filter47_df" x="131.468" y="19.3285" width="96.2217" height="97.4961" filterUnits="userSpaceOnUse" color-interpolation-filters="sRGB">
<feFlood flood-opacity="0" result="BackgroundImageFix"/>
<feColorMatrix in="SourceAlpha" type="matrix" values="0 0 0 0 0 0 0 0 0 0 0 0 0 0 0 0 0 0 127 0" result="hardAlpha"/>
<feOffset/>
<feGaussianBlur stdDeviation="23.2894"/>
<feComposite in2="hardAlpha" operator="out"/>
<feColorMatrix type="matrix" values="0 0 0 0 0.2 0 0 0 0 0 0 0 0 0 1 0 0 0 1 0"/>
<feBlend mode="normal" in2="BackgroundImageFix" result="effect1_dropShadow"/>
<feBlend mode="normal" in="SourceGraphic" in2="effect1_dropShadow" result="shape"/>
<feGaussianBlur stdDeviation="2.09604" result="effect2_foregroundBlur"/>
</filter>
<filter id="filter48_df" x="132.675" y="21.2073" width="94.234" height="94.2134" filterUnits="userSpaceOnUse" color-interpolation-filters="sRGB">
<feFlood flood-opacity="0" result="BackgroundImageFix"/>
<feColorMatrix in="SourceAlpha" type="matrix" values="0 0 0 0 0 0 0 0 0 0 0 0 0 0 0 0 0 0 127 0" result="hardAlpha"/>
<feOffset/>
<feGaussianBlur stdDeviation="23.2894"/>
<feComposite in2="hardAlpha" operator="out"/>
<feColorMatrix type="matrix" values="0 0 0 0 0.2 0 0 0 0 0 0 0 0 0 1 0 0 0 1 0"/>
<feBlend mode="normal" in2="BackgroundImageFix" result="effect1_dropShadow"/>
<feBlend mode="normal" in="SourceGraphic" in2="effect1_dropShadow" result="shape"/>
<feGaussianBlur stdDeviation="0.197789" result="effect2_foregroundBlur"/>
</filter>
<filter id="filter49_f" x="0.726194" y="12.7262" width="115.548" height="114.548" filterUnits="userSpaceOnUse" color-interpolation-filters="sRGB">
<feFlood flood-opacity="0" result="BackgroundImageFix"/>
<feBlend mode="normal" in="SourceGraphic" in2="BackgroundImageFix" result="shape"/>
<feGaussianBlur stdDeviation="12.6369" result="effect1_foregroundBlur"/>
</filter>
<filter id="filter50_f" x="46" y="28" width="165" height="165" filterUnits="userSpaceOnUse" color-interpolation-filters="sRGB">
<feFlood flood-opacity="0" result="BackgroundImageFix"/>
<feBlend mode="normal" in="SourceGraphic" in2="BackgroundImageFix" result="shape"/>
<feGaussianBlur stdDeviation="15" result="effect1_foregroundBlur"/>
</filter>
</defs>
</svg>
