<?xml version="1.0" encoding="UTF-8"?>
<!DOCTYPE svg PUBLIC "-//W3C//DTD SVG 1.1//EN" "http://www.w3.org/Graphics/SVG/1.1/DTD/svg11.dtd">
<!-- Creator: CorelDRAW Home & Student X7 -->
<svg xmlns="http://www.w3.org/2000/svg" xml:space="preserve" width="791px" height="514px" version="1.1" style="shape-rendering:geometricPrecision; text-rendering:geometricPrecision; image-rendering:optimizeQuality; fill-rule:evenodd; clip-rule:evenodd"
viewBox="0 0 188 122"
 xmlns:xlink="http://www.w3.org/1999/xlink">
 <defs>
  <style type="text/css">
   <![CDATA[
    .fil3 {fill:#FEFEFE}
    .fil0 {fill:#898989;fill-rule:nonzero}
    .fil1 {fill:#66C3D0;fill-rule:nonzero}
    .fil2 {fill:#296786;fill-rule:nonzero}
    .fil5 {fill:url(#id4)}
    .fil4 {fill:url(#id5)}
   ]]>
  </style>
    <mask id="id0">
  <linearGradient id="id1" gradientUnits="userSpaceOnUse" x1="93.9344" y1="94.8713" x2="93.9344" y2="99.9978">
   <stop offset="0" style="stop-opacity:1; stop-color:white"/>
   <stop offset="1" style="stop-opacity:0; stop-color:white"/>
  </linearGradient>
     <rect style="fill:url(#id1)" x="1" y="92" width="186.746" height="11.651"/>
    </mask>
   <mask id="id2">
  <linearGradient id="id3" gradientUnits="userSpaceOnUse" x1="72.56" y1="7.23989" x2="79.0898" y2="27.5035">
   <stop offset="0" style="stop-opacity:1; stop-color:white"/>
   <stop offset="1" style="stop-opacity:0; stop-color:white"/>
  </linearGradient>
    <rect style="fill:url(#id3)" x="47" width="58.0142" height="35.3047"/>
   </mask>
  <linearGradient id="id4" gradientUnits="userSpaceOnUse" x1="76.2214" y1="25.5877" x2="76.3545" y2="36.2269">
   <stop offset="0" style="stop-opacity:1; stop-color:#296786"/>
   <stop offset="1" style="stop-opacity:1; stop-color:#66C3D0"/>
  </linearGradient>
  <linearGradient id="id5" gradientUnits="userSpaceOnUse" xlink:href="#id4" x1="101.088" y1="44.3778" x2="101.088" y2="4.94634">
  </linearGradient>
 </defs>
 <g id="Слой_x0020_1">
  <metadata id="CorelCorpID_0Corel-Layer"/>
  <path class="fil0" d="M37 120c0,0 0,1 0,1 0,0 -1,0 -1,1 0,0 0,0 -1,0 0,0 -1,0 -1,0 -1,0 -2,0 -2,0 -1,0 -1,0 -2,0l0 -1 1 0c0,0 0,0 1,0 1,0 1,0 2,0 0,0 1,0 1,0 1,0 1,0 1,-1 0,0 0,0 0,0 -1,0 -1,-1 -1,-1 -1,0 -1,0 -1,0 -1,0 -1,0 -1,0 -1,0 -2,0 -2,-1 0,0 -1,0 -1,-1 0,0 1,-1 1,-1 1,0 2,-1 3,-1 0,0 1,0 1,1 1,0 1,0 2,0l0 1 0 0c-1,0 -1,0 -2,-1 0,0 -1,0 -1,0 -1,0 -1,0 -2,0 0,1 0,1 0,1 0,0 0,1 0,1 0,0 0,0 1,0 0,0 1,0 1,0 0,0 1,0 1,1 1,0 1,0 2,0 0,0 0,1 0,1zm25 -4l-3 3 0 3 -1 0 0 -3 -3 -3 1 0 2 2 3 -2 1 0zm24 4c0,0 0,1 0,1 0,0 -1,0 -1,1 0,0 -1,0 -1,0 0,0 -1,0 -2,0 0,0 -1,0 -1,0 -1,0 -1,0 -2,0l0 -1 0 0c1,0 1,0 2,0 0,0 1,0 1,0 1,0 2,0 2,0 1,0 1,0 1,-1 0,0 0,0 -1,0 0,0 0,-1 0,-1 -1,0 -1,0 -1,0 -1,0 -1,0 -1,0 -1,0 -2,0 -2,-1 0,0 -1,0 -1,-1 0,0 1,-1 1,-1 1,0 2,-1 3,-1 0,0 1,0 1,1 1,0 1,0 2,0l0 1 0 0c-1,0 -1,0 -2,-1 0,0 -1,0 -1,0 -1,0 -2,0 -2,0 0,1 0,1 0,1 0,0 0,1 0,1 0,0 0,0 1,0 0,0 0,0 1,0 0,0 1,0 1,1 1,0 1,0 1,0 1,0 1,1 1,1zm25 -4l-3 0 0 6 -2 0 0 -6 -3 0 0 0 8 0 0 0zm23 6l-5 0 0 -6 5 0 0 0 -4 0 0 2 4 0 0 1 -4 0 0 2 4 0 0 1zm26 0l-1 0 0 -6 -2 4 -1 0 -2 -4 0 6 -1 0 0 -6 1 0 3 3 2 -3 1 0 0 6z"/>
  <g id="_313717736">
   <path class="fil1" d="M167 94l0 0c0,-1 1,-1 1,-2 1,-1 2,-1 3,-1l13 0 4 0 0 3 -15 0 -1 0 -5 0zm18 6l3 0 0 4 -4 0 -13 0c-1,0 -2,0 -3,-1 0,-1 -1,-1 -1,-2l0 -5 21 0 0 3 -18 0 0 1 3 0 9 0 3 0zm-23 4l3 0 0 -3 0 -10 -5 0 -5 9 -6 -9 -5 0 0 3 3 0 6 10 3 0 6 -10 0 10zm-15 -8l0 3 0 5 -3 0 0 -8 3 0zm-5 8l-4 0 0 -10 0 -3 4 0 0 3 0 2 0 3 0 5zm-15 0l-3 0 0 -10 -4 0 -5 0 0 -3 4 0 13 0 4 0 0 3 -9 0 0 10z"/>
   <path class="fil2" d="M105 99l-9 0 0 1 0 4 -4 0 0 -3 0 -5 18 0 0 -2 -18 0 0 -3 4 0 13 0c1,0 2,0 3,1 1,0 1,1 1,2l0 2c0,1 0,2 -1,2 -1,1 -2,1 -3,1l4 5 -4 0 -4 -5zm-36 -5l0 0c0,-1 1,-1 1,-2 1,-1 2,-1 3,-1l13 0 4 0 0 3 -15 0 -1 0 -5 0zm18 6l3 0 0 4 -4 0 -13 0c-1,0 -2,0 -3,-1 0,-1 -1,-1 -1,-2l0 -5 21 0 0 3 -18 0 0 1 3 0 9 0 3 0zm-38 -4l14 0 0 -2 -17 0 0 -3 4 0 13 0c1,0 2,0 3,1 0,0 1,1 1,2l0 2c0,1 -1,1 -2,2 1,0 2,0 2,1l0 1c0,2 -1,2 -1,3 -1,1 -2,1 -3,1l-13 0 -4 0 0 -8 3 0zm14 3l-12 0 -2 0 0 1 7 0 7 0 0 -1zm-37 -8l0 3 -3 0 0 -3 3 0zm9 13l-3 0 0 -5 -6 0c0,0 -1,0 -2,-1 -1,0 -1,-1 -1,-2l3 0 3 0 11 0 0 -2 0 -3 4 0 0 3 0 2c0,1 -1,2 -1,2 -1,1 -2,1 -3,1l-5 0 0 1 0 4zm-17 -4l3 0 0 4 -4 0 -13 0c-1,0 -2,0 -3,-1 -1,-1 -1,-1 -1,-2l0 -7c0,-1 0,-1 1,-2 1,-1 2,-1 3,-1l13 0 4 0 0 3 -15 0c-1,0 -1,1 -2,1 0,0 -1,1 -1,1l0 3c0,0 1,0 1,1 1,0 1,0 2,0l9 0 3 0z"/>
   <path class="fil3" style="mask:url(#id0)" d="M20 94l0 -2 -3 0 -13 0c-1,0 -2,0 -2,0 -1,1 -1,1 -1,2l0 7c0,0 0,1 1,1 0,1 1,1 2,1l16 0 0 -2 -14 0c-1,0 -2,0 -2,-1 -1,0 -1,-1 -1,-1l0 -3 0 0c0,-1 0,-1 1,-2 1,0 1,0 2,0l14 0zm14 9l0 -5 6 0c0,0 2,0 2,0 1,-1 1,-1 1,-2l0 -4 -2 0 0 4 -17 0c0,1 0,1 0,2 1,0 2,0 2,0l6 0 0 5 2 0zm-8 -11l-2 0 0 2 2 0 0 -2zm21 4l0 7 16 0c1,0 2,0 2,0 1,-1 1,-2 1,-3l0 -1c0,-1 -1,-1 -1,-1l-4 0 4 -1c0,0 1,0 1,-1l0 -2c0,0 0,-1 -1,-2 0,0 -1,0 -2,0l-13 0 -3 0 0 2 17 0 0 2 -17 0zm17 2l0 3 -15 0 0 -3 15 0zm25 0l0 -2 -19 0 0 5c0,0 0,1 1,1 1,1 1,1 2,1l16 0 0 -2 -17 0 0 -3 17 0zm-19 -4l19 0 0 -2 -3 0 -13 0c-1,0 -1,0 -2,0 -1,1 -1,1 -1,2zm40 9l2 0 -4 -5 1 0c1,0 2,0 3,0 0,-1 0,-1 0,-2l0 -2c0,0 0,-1 -1,-2 0,0 -1,0 -2,0l-13 0 -3 0 0 2 17 0 0 2 -17 0 0 7 2 0 0 -5 10 0 5 5zm17 0l0 -9 8 0 0 -2 -3 0 -13 0 -3 0 0 2 9 0 0 9 2 0zm14 0l0 -11 -2 0 0 11 2 0zm6 -6l-2 0 0 6 2 0 0 -6zm15 6l2 0 0 -11 -4 0 -5 9 -7 -9 -3 0 0 2 3 0 6 9 1 0 7 -11 0 11zm25 -5l0 -2 -19 0 0 5c0,0 0,1 1,1 0,1 1,1 2,1l16 0 0 -2 -17 0 0 -3 17 0zm-19 -4l19 0 0 -2 -3 0 -13 0c-1,0 -2,0 -2,0 -1,1 -1,1 -1,2z"/>
  </g>
  <path class="fil4" d="M76 23c5,0 8,3 8,8 0,4 -3,8 -8,8 -4,0 -8,-4 -8,-8 0,-5 4,-8 8,-8zm18 11c17,10 32,15 44,13l0 1c-13,3 -31,-3 -45,-13 -3,2 -9,3 -11,3 0,0 7,-5 2,-13 5,2 8,5 10,8 1,0 1,1 0,1zm-4 -12l-1 1c16,12 45,31 63,13l1 1c-20,19 -48,0 -65,-12 0,0 0,0 0,0l-7 -3 0 1c0,0 -1,-2 -5,-2 0,-1 -5,-8 -12,-11 4,-5 16,-4 21,-2 0,1 0,1 0,1 1,1 3,2 6,3l-1 2 6 3 0 1c5,4 39,36 55,13 1,-2 4,-8 2,-10l1 -1c3,3 0,9 -2,12 -17,26 -55,-11 -57,-13 0,1 0,1 0,1l-1 -1 0 -1 0 -1 -1 2 -1 0 1 -3 0 0 -2 3 -2 -1c0,1 0,1 0,1l-5 -2c2,-2 2,-5 1,-6l0 0c0,4 -1,4 -2,8l7 3zm46 1l1 1c10,-5 17,12 -2,12 -15,0 -25,-17 -35,-25 -1,1 -1,2 -1,2 -1,-1 -5,-3 -6,-4l1 -2 -1 0 -1 2c0,0 0,0 -1,0l2 -3 -1 -1 -1 3c-3,-1 -6,-2 -10,-3 -6,-1 -14,-1 -19,4 -1,-1 -3,-1 -5,-1 14,-14 34,-6 45,1 -1,0 -1,0 -1,1 9,7 20,25 34,24 15,0 10,-12 3,-8l1 1 -5 3 -3 -4 5 -3zm-80 -14c-3,3 -4,9 -5,12 0,1 1,2 1,4 0,1 -1,2 -3,5 -2,2 -2,2 -2,3 1,1 2,1 3,2 1,1 0,2 0,3 0,0 0,1 2,1 0,1 -2,1 -1,2 2,2 1,3 1,5 -1,1 1,3 4,3 5,1 13,-1 18,-5 0,0 1,-2 2,-4 -5,0 -9,-4 -9,-9 0,-5 3,-9 8,-10 -4,-5 -8,-8 -13,-10 -4,2 -7,10 -5,12 1,0 3,3 3,3 0,1 -5,1 -5,0 -1,-6 0,-2 0,-4 0,-5 2,-8 5,-12 -1,0 -3,-1 -4,-1z"/>
  <path class="fil5" d="M76 24c4,0 7,3 7,7 0,4 -3,6 -7,6 -3,0 -6,-2 -6,-6 0,-4 3,-7 6,-7z"/>
  <path class="fil3" style="mask:url(#id2)" d="M79 0c8,1 16,4 21,8 4,3 5,5 4,9 -2,9 -9,17 -25,17 -4,0 -8,-1 -11,-2 -3,0 -17,5 -20,2 0,-1 -1,-1 -1,-2 1,-2 6,-7 5,-8 -1,-1 -1,-2 -1,-3 0,-1 1,-4 2,-6 2,-7 11,-16 26,-15z"/>
 </g>
</svg>
